<?xml version="1.0" standalone="no"?>
<!DOCTYPE svg PUBLIC "-//W3C//DTD SVG 1.1//EN" "http://www.w3.org/Graphics/SVG/1.1/DTD/svg11.dtd" >
<svg xmlns="http://www.w3.org/2000/svg">
<metadata>Generated by IcoMoon</metadata>
<defs>
<font id="icomoon" horiz-adv-x="1024">
<font-face units-per-em="1024" ascent="1024" descent="0" />
<missing-glyph horiz-adv-x="1024" />
<glyph unicode="&#x20;" d="" />
<glyph unicode="&#xe900;" glyph-name="alert" d="M567.36 926.72c-11.52 19.84-32.64 32-55.68 32s-44.16-12.16-55.68-32l-438.4-766.72c-11.52-19.84-11.52-44.16 0-64 12.16-19.84 33.28-32 55.68-32h876.8c23.040 0 44.16 12.16 55.040 32s11.52 44.16 0.64 64l-438.4 766.72zM575.68 192h-128v128h128v-128zM575.68 384h-128v256h128v-256z" />
<glyph unicode="&#xe901;" glyph-name="arrow-down" horiz-adv-x="640" d="M448 576v256h-256v-256h-192l320-384 320 384z" />
<glyph unicode="&#xe902;" glyph-name="arrow-left" horiz-adv-x="640" d="M384 832l-384-320 384-320v192h256v256h-256z" />
<glyph unicode="&#xe903;" glyph-name="arrow-right" horiz-adv-x="640" d="M640 512l-384 320v-192h-256v-256h256v-192z" />
<glyph unicode="&#xe904;" glyph-name="arrow-small-down" horiz-adv-x="384" d="M256 576v128h-128v-128h-128l192-256 192 256z" />
<glyph unicode="&#xe905;" glyph-name="arrow-small-left" horiz-adv-x="384" d="M256 576v128l-256-192 256-192v128h128v128z" />
<glyph unicode="&#xe906;" glyph-name="arrow-small-right" horiz-adv-x="384" d="M384 512l-256 192v-128h-128v-128h128v-128z" />
<glyph unicode="&#xe907;" glyph-name="arrow-small-up" horiz-adv-x="384" d="M192 704l-192-256h128v-128h128v128h128z" />
<glyph unicode="&#xe908;" glyph-name="arrow-up" horiz-adv-x="640" d="M320 832l-320-384h192v-256h256v256h192z" />
<glyph unicode="&#xe909;" glyph-name="beaker" d="M920.32 90.24l-216.32 485.76v256h64v64h-576v-64h64v-256l-215.68-485.76c-3.554-7.712-5.627-16.734-5.627-26.24 0-35.299 28.578-63.924 63.859-64h764.167c46.080 0 76.8 48 58.24 90.24h-0.64zM240 384l80 192v256h320v-256l80-192h-480zM512 512h64v-64h-64v64zM448 576h-64v64h64v-64zM448 768h64v-64h-64v64zM448 960h-64v64h64v-64z" />
<glyph unicode="&#xe90a;" glyph-name="bell" horiz-adv-x="896" d="M896 256v-64h-896v64l46.72 37.12c49.28 49.28 51.84 163.2 76.16 282.88 49.28 241.28 261.12 320 261.12 320 0 35.2 28.8 64 64 64s64-28.8 64-64c0 0 216.96-78.72 266.24-320 24.32-120.32 26.88-234.24 76.16-282.88l42.24-37.12h-0.64zM448 0c71.040 0 128 56.96 128 128h-256c0-71.040 56.96-128 128-128z" />
<glyph unicode="&#xe90b;" glyph-name="bold" horiz-adv-x="640" d="M64 896h245.12c158.72 0 275.2-48 275.2-188.8 0-72.96-40.32-142.72-106.88-167.040v-3.84c85.12-19.2 147.2-78.72 147.2-183.040 0-152.96-126.080-225.28-295.040-225.28h-265.6v768zM298.24 579.2c106.88 0 152.32 42.24 152.32 108.16 0 74.88-49.92 103.040-149.76 103.040h-100.48v-211.2h97.92zM315.52 234.24c113.28 0 176 40.96 176 126.72 0 81.28-60.8 115.84-176 115.84h-115.2v-243.2h115.2v0.64z" />
<glyph unicode="&#xe90c;" glyph-name="book" d="M192 704h256v-64h-256v64zM192 512h256v64h-256v-64zM192 384h256v64h-256v-64zM896 704h-256v-64h256v64zM896 576h-256v-64h256v64zM896 448h-256v-64h256v64zM1024 832v-576c0-35.2-28.8-64-64-64h-352l-64-64-64 64h-352c-35.2 0-64 28.8-64 64v576c0 35.2 28.8 64 64 64h352l64-64 64 64h352c35.2 0 64-28.8 64-64zM512 800l-32 32h-352v-576h384v544zM960 832h-352l-32-32v-544h384v576z" />
<glyph unicode="&#xe90d;" glyph-name="bookmark" horiz-adv-x="640" d="M576 1024h-512c-46.72 0-64-17.28-64-64v-960l320 197.76 320-197.76v960c0 46.72-17.28 64-64 64zM526.080 752l-119.040-87.040 46.080-138.24c3.84-14.080-1.28-17.92-12.8-10.88l-120.32 85.76-120.32-85.76c-12.16-7.040-16-3.2-12.8 10.88l46.080 138.24-119.040 87.040c-10.88 10.24-8.96 14.72 5.76 14.72l147.2 1.92 44.8 138.24h16l44.8-138.24 147.2-1.92c14.72 0 17.28-5.12 5.76-14.72h0.64z" />
<glyph unicode="&#xe90e;" glyph-name="briefcase" horiz-adv-x="896" d="M576 768v64c0 35.2-28.8 64-64 64h-128c-35.2 0-64-28.8-64-64v-64h-256c-35.2 0-64-28.8-64-64v-512c0-35.2 28.8-64 64-64h768c35.2 0 64 28.8 64 64v512c0 35.2-28.8 64-64 64h-256zM384 832h128v-64h-128v64zM832 448h-320v-64h-128v64h-320v256h64v-192h640v192h64v-256z" />
<glyph unicode="&#xe90f;" glyph-name="broadcast" d="M576 448h-64c35.2 0 64 28.8 64 64v64c0 35.2-28.8 64-64 64h-64c-35.2 0-64-28.8-64-64v-64c0-35.2 28.8-64 64-64h-64c-35.2 0-64-28.8-64-64v-128h64v-192c0-35.2 28.8-64 64-64h64c35.2 0 64 28.8 64 64v192h64v128c0 35.2-28.8 64-64 64zM448 576h64v-64h-64v64zM576 320h-64v-256h-64v256h-64v64h192v-64zM709.76 544c0 126.72-103.040 229.76-229.76 229.76-126.966-0.044-229.875-102.98-229.875-229.952 0-18.315 2.141-36.131 6.187-53.209l-0.312-125.159c-39.040 49.28-64 110.72-64 179.2 0 158.72 129.28 288 288 288s288-129.28 288-288c0-67.84-24.96-129.92-64-179.2v126.72c3.84 17.28 5.76 33.92 5.76 51.84zM960 544c0-184.32-104.32-344.32-256-424.32v67.2c119.514 75.277 197.761 206.524 197.761 356.047 0 0.377 0 0.754-0.001 1.132 0 232.873-188.828 421.701-421.76 421.701s-421.76-188.828-421.76-421.76c0-151.040 78.72-282.88 197.76-357.12v-67.2c-153.515 82.092-256.19 241.311-256.19 424.512 0 264.991 214.817 479.808 479.808 479.808 0.134 0 0.269 0 0.403 0 264.939 0 479.979-215.040 479.979-480z" />
<glyph unicode="&#xe910;" glyph-name="browser" horiz-adv-x="896" d="M320 832h64v-64h-64v64zM192 832h64v-64h-64v64zM64 832h64v-64h-64v64zM832 192h-768v512h768v-512zM832 768h-384v64h384v-64zM896 832c0 35.2-28.8 64-64 64h-768c-35.2 0-64-28.8-64-64v-640c0-35.2 28.8-64 64-64h768c35.2 0 64 28.8 64 64v640z" />
<glyph unicode="&#xe911;" glyph-name="bug" d="M704 384h192v64h-192v64l202.88 65.92-21.76 60.16-181.12-62.080v64c0 35.2-28.8 64-64 64v64c0 30.72-23.040 56.32-53.12 62.080l65.92 65.92h115.2v64h-140.8l-128-128h-37.76l-128.64 128h-140.8v-64h115.2l65.92-65.92c-30.080-5.76-53.12-30.72-53.12-62.080v-64c-35.2 0-64-28.8-64-64v-64l-181.12 62.080-21.76-60.16 202.88-65.92v-64h-192v-64h192v-64l-202.88-65.92 21.76-60.16 181.12 62.080v-64c0-35.2 28.8-64 64-64h64l64 64v448h64v-448l64-64h64c35.2 0 64 28.8 64 64v64l181.12-62.080 21.76 60.16-202.88 65.92v64zM576 704h-192v64h192v-64z" />
<glyph unicode="&#xe912;" glyph-name="calendar" horiz-adv-x="896" d="M832 896h-64v-96c0-17.92-14.080-32-32-32h-128c-17.92 0-32 14.080-32 32v96h-192v-96c0-17.92-14.080-32-32-32h-128c-17.92 0-32 14.080-32 32v96h-64c-35.2 0-64-28.8-64-64v-704c0-35.2 28.8-64 64-64h704c35.2 0 64 28.8 64 64v704c0 35.2-28.8 64-64 64zM832 128h-704v576h704v-576zM320 832h-64v128h64v-128zM704 832h-64v128h64v-128zM384 576h-64v64h64v-64zM512 576h-64v64h64v-64zM640 576h-64v64h64v-64zM768 576h-64v64h64v-64zM256 448h-64v64h64v-64zM384 448h-64v64h64v-64zM512 448h-64v64h64v-64zM640 448h-64v64h64v-64zM768 448h-64v64h64v-64zM256 320h-64v64h64v-64zM384 320h-64v64h64v-64zM512 320h-64v64h64v-64zM640 320h-64v64h64v-64zM768 320h-64v64h64v-64zM256 192h-64v64h64v-64zM384 192h-64v64h64v-64zM512 192h-64v64h64v-64zM640 192h-64v64h64v-64z" />
<glyph unicode="&#xe913;" glyph-name="check" horiz-adv-x="768" d="M768 704l-512-512-256 256 96 96 160-160 416 416z" />
<glyph unicode="&#xe914;" glyph-name="checklist" d="M1024 480l-384-384-192 192 96 96 96-96 288 288 96-96zM364.8 243.2l51.2-51.2h-288c-35.2 0-64 28.8-64 64v576c0 35.2 28.8 64 64 64h448c35.2 0 64-28.8 64-64v-416l-51.2 51.2c-24.96 24.96-65.92 24.96-90.88 0l-133.12-134.4c-11.563-11.54-18.716-27.495-18.716-45.12s7.153-33.58 18.715-45.119l0.001 0.639zM256 768h320v64h-320v-64zM256 640h320v64h-320v-64zM256 512h192v64h-192v-64zM192 448h-64v-64h64v64zM192 576h-64v-64h64v64zM192 704h-64v-64h64v64zM192 832h-64v-64h64v64z" />
<glyph unicode="&#xe915;" glyph-name="chevron-down" horiz-adv-x="640" d="M320 320l-320 320 96 96 224-240 224 240 96-96z" />
<glyph unicode="&#xe916;" glyph-name="chevron-left" horiz-adv-x="512" d="M352 832l96-96-240-224 240-224-96-96-320 320z" />
<glyph unicode="&#xe917;" glyph-name="chevron-right" horiz-adv-x="512" d="M480 512l-320-320-96 96 240 224-240 224 96 96z" />
<glyph unicode="&#xe918;" glyph-name="chevron-up" horiz-adv-x="640" d="M640 384l-96-96-224 240-224-240-96 96 320 320z" />
<glyph unicode="&#xe919;" glyph-name="circle-slash" horiz-adv-x="896" d="M448 960c-247.040 0-448-200.96-448-448s200.96-448 448-448 448 200.96 448 448-200.96 448-448 448zM448 876.8c83.2 0 160-28.16 222.080-74.88l-512-512c-46.628 60.956-74.757 138.221-74.88 222.051 0 200.989 163.84 364.829 364.8 364.829zM448 146.56c-83.2 0-160 28.16-222.080 74.88l512 512c46.72-62.080 74.88-138.88 74.88-222.080 0-200.96-163.84-364.8-364.8-364.8z" />
<glyph unicode="&#xe91a;" glyph-name="circuit-board" horiz-adv-x="896" d="M192 704c0 35.2 28.8 64 64 64s64-28.8 64-64-28.8-64-64-64-64 28.8-64 64zM704 704c0 35.2-28.8 64-64 64s-64-28.8-64-64 28.8-64 64-64 64 28.8 64 64zM704 320c0 35.2-28.8 64-64 64s-64-28.8-64-64 28.8-64 64-64 64 28.8 64 64zM832 960h-512v-138.88c23.040-12.16 40.96-30.080 53.12-53.12h149.76c26.88 49.92 85.12 81.92 149.76 67.2 48-12.16 87.040-51.2 97.92-99.2 19.84-88.32-46.080-165.76-131.2-165.76-51.2 0-94.72 28.16-117.12 69.76h-149.12c-26.88-51.2-85.12-81.92-149.76-65.92-46.72 10.88-85.76 49.92-97.28 97.28-16 65.28 14.72 122.88 65.92 149.76v138.88h-128c-35.2 0-64-28.8-64-64v-768c0-35.2 28.8-64 64-64l320 320h138.88c26.88 49.92 85.12 81.92 149.76 67.2 48-12.16 87.040-51.2 97.92-99.2 19.84-88.32-46.080-165.76-131.2-165.76-51.2 0-94.72 28.16-117.12 69.76h-74.88l-191.36-192h576c35.2 0 64 28.8 64 64v768c0 35.2-28.8 64-64 64z" />
<glyph unicode="&#xe91b;" glyph-name="clippy" horiz-adv-x="896" d="M128 192h256v-64h-256v64zM448 576h-320v-64h320v64zM576 384v128l-192-192 192-192v128h320v128h-320zM288 448h-160v-64h160v64zM128 256h160v64h-160v-64zM704 192h64v-128c-1.28-17.92-7.040-33.28-19.2-44.8s-26.88-17.92-44.8-19.2h-640c-35.2 0-64 28.8-64 64v704c0 35.2 28.8 64 64 64h192c0 71.040 56.96 128 128 128s128-56.96 128-128h192c35.2 0 64-28.8 64-64v-320h-64v192h-640v-576h640v128zM128 704h512c0 35.2-28.8 64-64 64h-64c-35.2 0-64 28.8-64 64s-28.8 64-64 64-64-28.8-64-64-28.8-64-64-64h-64c-35.2 0-64-28.8-64-64z" />
<glyph unicode="&#xe91c;" glyph-name="clock" horiz-adv-x="896" d="M512 512h192v-128h-256c-35.2 0-64 28.8-64 64v320h128v-256zM448 876.8c200.96 0 364.8-163.84 364.8-364.8s-163.84-364.8-364.8-364.8c-201.327 0.364-364.437 163.473-364.8 364.765 0 200.995 163.84 364.835 364.8 364.835zM448 960c-247.040 0-448-200.96-448-448s200.96-448 448-448 448 200.96 448 448-200.96 448-448 448z" />
<glyph unicode="&#xe91d;" glyph-name="cloud-download" d="M576 256h128l-192-192-192 192h128v320h128v-320zM768 768c0 28.16-58.24 192-288 192-154.88 0-288-122.88-288-256-126.72 0-192-97.28-192-192 0-97.92 64-192 192-192h192v83.2h-192c-103.68 0-108.8 90.88-108.8 108.8 0 10.88 3.2 108.8 108.8 108.8h83.2v83.2c0 88.96 99.84 172.8 204.8 172.8 163.2 0 200.32-99.2 204.8-115.2v-76.8h83.2c51.84 0 172.8-14.080 172.8-140.8 0-133.76-144-140.8-172.8-140.8h-128v-83.2h128c133.12 0 256 74.24 256 224 0 156.16-122.88 224-256 224z" />
<glyph unicode="&#xe91e;" glyph-name="cloud-upload" d="M448 448h-128l192 192 192-192h-128v-320h-128v320zM768 704c0 28.16-58.24 192-288 192-154.88 0-288-122.88-288-256-126.72 0-192-97.28-192-192 0-97.92 64-192 192-192h192v83.2h-192c-103.68 0-108.8 90.88-108.8 108.8 0 10.88 3.2 108.8 108.8 108.8h83.2v83.2c0 88.96 99.84 172.8 204.8 172.8 163.2 0 200.32-99.2 204.8-115.2v-76.8h83.2c51.84 0 172.8-14.080 172.8-140.8 0-133.76-144-140.8-172.8-140.8h-128v-83.2h128c133.12 0 256 74.24 256 224 0 156.16-122.88 224-256 224z" />
<glyph unicode="&#xe91f;" glyph-name="code" horiz-adv-x="896" d="M608 832l-96-96 224-224-224-224 96-96 288 320-288 320zM288 832l-288-320 288-320 96 96-224 224 224 224-96 96z" />
<glyph unicode="&#xe920;" glyph-name="comment-discussion" d="M960 960h-576c-35.2 0-64-28.8-64-64v-128h-256c-35.2 0-64-28.8-64-64v-384c0-35.2 28.8-64 64-64h64v-192l192 192h256c35.2 0 64 28.8 64 64v128h64l192-192v192h64c35.2 0 64 28.8 64 64v384c0 35.2-28.8 64-64 64zM576 320h-288l-96-96v96h-128v384h256v-192c0-35.2 28.8-64 64-64h192v-128zM960 512h-128v-96l-96 96h-352v384h576v-384z" />
<glyph unicode="&#xe921;" glyph-name="comment" d="M896 960h-768c-35.2 0-64-28.8-64-64v-512c0-35.2 28.8-64 64-64h128v-224l224 224h416c35.2 0 64 28.8 64 64v512c0 35.2-28.8 64-64 64zM896 384h-448l-128-128v128h-192v512h768v-512z" />
<glyph unicode="&#xe922;" glyph-name="credit-card" d="M768 448h-640v64h640v-64zM1024 832v-576c0-35.2-28.8-64-64-64h-896c-35.2 0-64 28.8-64 64v576c0 35.2 28.8 64 64 64h896c35.2 0 64-28.8 64-64zM960 640h-896v-384h896v384zM960 832h-896v-64h896v64zM384 384h-256v-64h256v64z" />
<glyph unicode="&#xe923;" glyph-name="dash" horiz-adv-x="512" d="M0 576v-128h512v128z" />
<glyph unicode="&#xe924;" glyph-name="dashboard" d="M576 704h-64v64h64v-64zM832 512h-64v-64h64v64zM384 704h-64v-64h64v64zM320 512h-64v-64h64v64zM1024 864l-32 32-416-320c-3.84 1.28-64 0-64 0-35.2 0-64-28.8-64-64v-64c0-35.2 28.8-64 64-64h64c35.2 0 64 28.8 64 64v58.88l384 357.12zM922.24 602.24c12.16-39.040 19.2-80 19.2-122.24 0-218.88-177.92-396.8-396.8-396.8s-397.44 177.92-397.44 396.8c0 218.88 177.92 396.8 396.8 396.8 76.8 0 147.84-21.76 209.28-60.16l60.16 60.16c-75.233 51.997-168.374 83.095-268.773 83.2-265.627 0-480.667-215.040-480.667-480s215.040-480 480-480c264.96 0 480 215.040 480 480 0 65.92-12.8 129.28-37.76 186.24l-64-64z" />
<glyph unicode="&#xe925;" glyph-name="database" horiz-adv-x="768" d="M384 64c-211.84 0-384 57.6-384 128v128c0 10.88 5.76 21.76 13.44 32 42.88-55.040 192-96 370.56-96s327.68 40.96 370.56 96c8.32-10.24 13.44-21.12 13.44-32v-128c0-70.4-172.16-128-384-128zM384 320c-211.84 0-384 57.6-384 128v128c0 7.040 2.56 13.44 5.76 19.84 1.92 3.84 4.48 8.32 7.68 12.16 42.88-55.040 192-96 370.56-96s327.68 40.96 370.56 96c3.2-3.84 5.76-8.32 7.68-12.16 3.2-6.4 5.76-13.44 5.76-19.84v-128c0-70.4-172.16-128-384-128zM384 576c-211.84 0-384 57.6-384 128v128c0 70.4 172.16 128 384 128s384-57.6 384-128v-128c0-70.4-172.16-128-384-128zM384 896c-141.44 0-256-28.8-256-64s114.56-64 256-64 256 28.8 256 64-114.56 64-256 64z" />
<glyph unicode="&#xe926;" glyph-name="desktop-download" d="M256 640h192v384h128v-384h192l-256-256-256 256zM960 896h-256v-64h256v-512h-896v512h256v64h-256c-35.2 0-64-28.8-64-64v-576c0-35.2 28.8-64 64-64h341.76c-16-39.040-55.040-88.96-149.76-128h512c-94.72 39.040-133.76 88.96-149.76 128h341.76c35.2 0 64 28.8 64 64v576c0 35.2-28.8 64-64 64z" />
<glyph unicode="&#xe927;" glyph-name="device-camera-video" d="M972.8 890.24l-332.8-232.32v174.080c0 35.2-28.8 64-64 64h-512c-35.2 0-64-28.8-64-64v-576c0-35.2 28.8-64 64-64h512c35.2 0 64 28.8 64 64v174.080l332.8-232.32c21.12-14.72 51.2 0 51.2 26.24v640c0 26.24-30.080 40.96-51.2 26.24z" />
<glyph unicode="&#xe928;" glyph-name="device-camera" d="M960 832h-512c0 35.2-28.8 64-64 64h-256c-35.2 0-64-28.8-64-64-35.2 0-64-28.8-64-64v-576c0-35.2 28.8-64 64-64h896c35.2 0 64 28.8 64 64v576c0 35.2-28.8 64-64 64zM384 704h-256v64h256v-64zM672 256c-124.16 0-224 99.84-224 224s99.84 224 224 224 224-99.84 224-224-99.84-224-224-224zM832 480c0-88.32-72.32-160-160-160s-160 72.32-160 160 72.32 160 160 160 160-72.32 160-160z" />
<glyph unicode="&#xe929;" glyph-name="device-desktop" d="M960 896h-896c-35.2 0-64-28.8-64-64v-576c0-35.2 28.8-64 64-64h341.76c-16-39.040-55.040-88.96-149.76-128h512c-94.72 39.040-133.76 88.96-149.76 128h341.76c35.2 0 64 28.8 64 64v576c0 35.2-28.8 64-64 64zM960 320h-896v512h896v-512z" />
<glyph unicode="&#xe92a;" glyph-name="device-mobile" horiz-adv-x="640" d="M576 1024h-512c-35.2 0-64-28.8-64-64v-896c0-35.2 28.8-64 64-64h512c35.2 0 64 28.8 64 64v896c0 35.2-28.8 64-64 64zM320 44.8c-46.080 0-83.2 37.12-83.2 83.2s37.12 83.2 83.2 83.2c46.080 0 83.2-37.12 83.2-83.2s-37.12-83.2-83.2-83.2zM576 256h-512v640h512v-640z" />
<glyph unicode="&#xe92b;" glyph-name="diff-added" horiz-adv-x="896" d="M832 960h-768c-35.2 0-64-28.8-64-64v-768c0-35.2 28.8-64 64-64h768c35.2 0 64 28.8 64 64v768c0 35.2-28.8 64-64 64zM832 128h-768v768h768v-768zM384 448h-192v128h192v192h128v-192h192v-128h-192v-192h-128v192z" />
<glyph unicode="&#xe92c;" glyph-name="diff-ignored" horiz-adv-x="896" d="M832 960h-768c-35.2 0-64-28.8-64-64v-768c0-35.2 28.8-64 64-64h768c35.2 0 64 28.8 64 64v768c0 35.2-28.8 64-64 64zM832 128h-768v768h768v-768zM288 256h-96v96l416 416h96v-96l-416-416z" />
<glyph unicode="&#xe92d;" glyph-name="diff-modified" horiz-adv-x="896" d="M832 960h-768c-35.2 0-64-28.8-64-64v-768c0-35.2 28.8-64 64-64h768c35.2 0 64 28.8 64 64v768c0 35.2-28.8 64-64 64zM832 128h-768v768h768v-768zM256 512c0 106.24 85.76 192 192 192s192-85.76 192-192-85.76-192-192-192-192 85.76-192 192z" />
<glyph unicode="&#xe92e;" glyph-name="diff-removed" horiz-adv-x="896" d="M832 960h-768c-35.2 0-64-28.8-64-64v-768c0-35.2 28.8-64 64-64h768c35.2 0 64 28.8 64 64v768c0 35.2-28.8 64-64 64zM832 128h-768v768h768v-768zM704 448h-512v128h512v-128z" />
<glyph unicode="&#xe92f;" glyph-name="diff-renamed" horiz-adv-x="896" d="M384 448h-192v128h192v192l320-256-320-256v192zM896 896v-768c0-35.2-28.8-64-64-64h-768c-35.2 0-64 28.8-64 64v768c0 35.2 28.8 64 64 64h768c35.2 0 64-28.8 64-64zM832 896h-768v-768h768v768z" />
<glyph unicode="&#xe930;" glyph-name="diff" horiz-adv-x="832" d="M384 576h128v-64h-128v-128h-64v128h-128v64h128v128h64v-128zM192 192h320v64h-320v-64zM480 896l224-224v-608c0-35.2-28.8-64-64-64h-576c-35.2 0-64 28.8-64 64v768c0 35.2 28.8 64 64 64h416zM640 640l-192 192h-384v-768h576v576zM544 1024h-352v-64h320l256-256v-512h64v544l-288 288z" />
<glyph unicode="&#xe931;" glyph-name="ellipses" horiz-adv-x="768" d="M704 704h-640c-35.2 0-64-28.8-64-64v-256c0-35.2 28.8-64 64-64h640c35.2 0 64 28.8 64 64v256c0 35.2-28.8 64-64 64zM256 448h-128v128h128v-128zM448 448h-128v128h128v-128zM640 448h-128v128h128v-128z" />
<glyph unicode="&#xe932;" glyph-name="ellipsis" horiz-adv-x="768" d="M704 704h-640c-35.2 0-64-28.8-64-64v-256c0-35.2 28.8-64 64-64h640c35.2 0 64 28.8 64 64v256c0 35.2-28.8 64-64 64zM256 448h-128v128h128v-128zM448 448h-128v128h128v-128zM640 448h-128v128h128v-128z" />
<glyph unicode="&#xe933;" glyph-name="eye" d="M515.84 896c-323.84 0-515.84-384-515.84-384s192-384 515.84-384c316.16 0 508.16 384 508.16 384s-192 384-508.16 384zM512 256c-140.8 0-256 113.92-256 256 0 140.8 115.2 256 256 256 142.080 0 256-115.2 256-256 0-142.080-113.92-256-256-256zM640 512c0-71.040-56.96-128-128-128s-128 56.96-128 128c0 71.040 56.96 128 128 128s128-56.96 128-128z" />
<glyph unicode="&#xe934;" glyph-name="file-binary" horiz-adv-x="768" d="M256 256h64v-64h-192v64h64v128h-64v64h128v-192zM768 736v-608c0-35.2-28.8-64-64-64h-640c-35.2 0-64 28.8-64 64v768c0 35.2 28.8 64 64 64h480l224-224zM704 704l-192 192h-448v-768h640v576zM512 768h-128v-64h64v-128h-64v-64h192v64h-64v192zM128 768h192v-256h-192v256zM192 576h64v128h-64v-128zM384 448h192v-256h-192v256zM448 256h64v128h-64v-128z" />
<glyph unicode="&#xe935;" glyph-name="file-code" horiz-adv-x="768" d="M544 960h-480c-35.2 0-64-28.8-64-64v-768c0-35.2 28.8-64 64-64h640c35.2 0 64 28.8 64 64v608l-224 224zM704 128h-640v768h448l192-192v-576zM320 577.28l-96-97.28 96-96-32-64-160 160 160 160 32-62.72zM480 640l160-160-160-160-32 62.72 96 97.28-96 96 32 64z" />
<glyph unicode="&#xe936;" glyph-name="file-directory" horiz-adv-x="896" d="M832 768h-384v64c0 42.24-19.84 64-64 64h-320c-35.2 0-64-28.8-64-64v-640c0-35.2 28.8-64 64-64h768c35.2 0 64 28.8 64 64v512c0 35.2-28.8 64-64 64zM384 768h-320v64h320v-64z" />
<glyph unicode="&#xe937;" glyph-name="file-media" horiz-adv-x="768" d="M384 704h128v-128h-128v128zM768 736v-608c0-35.2-28.8-64-64-64h-640c-35.2 0-64 28.8-64 64v768c0 35.2 28.8 64 64 64h480l224-224zM704 704l-192 192h-448v-704l192 320 128-256 128 128 192-192v512z" />
<glyph unicode="&#xe938;" glyph-name="file-pdf" horiz-adv-x="768" d="M544 960h-480c-35.346 0-64-28.654-64-64v-768c0-35.346 28.654-64 64-64h640c35.346 0 64 28.654 64 64v608l-224 224zM64 896h256c-7.922-2.484-14.633-6.92-19.8-12.754-7.080-8.364-12.225-18.511-14.675-29.668-4.863-19.466-7.605-41.287-7.605-63.749 0-10.849 0.64-21.548 1.883-32.062 3.717-37.703 10.949-76.231 21.637-113.927-23.254-67.761-47.256-123.998-74.694-178.2-28.346-56.040-47.546-98.28-54.586-109.8-18.076-6.761-32.633-13.226-46.769-20.402-21.861-10.075-42.937-23.776-61.728-40.044l0.338 600.606zM346.88 588.8c16.123-51.781 41.793-96.471 75.207-134.135 17.273-14.793 37.753-26.313 59.833-33.545-40.96-5.76-78.72-12.8-115.84-21.12-45.202-11.019-83.819-23.959-120.969-39.689-32.439-13.623 19.209 30.089 44.169 81.929 23.36 47.36 42.88 96.64 58.24 147.2l-0.64-0.64zM704 128h-608c-1.633-0.2-3.523-0.313-5.44-0.313s-3.807 0.114-5.665 0.335c18.335 6.492 33.89 16.073 47.036 28.221 44.097 43.777 81.98 93.901 112.134 148.866 21.534 11.691 38.814 18.091 53.534 23.211l26.88 8.96c28.8 8.32 60.16 14.72 92.16 21.12s64 10.24 94.72 12.8c24.916-12.422 54.431-23.967 85.046-32.937 29.706-8.023 56.010-13.015 82.634-15.703h24.32v-194.56h0.64zM704 439.040c-11.607 6.585-25.144 12.647-39.273 17.425-15.704 4.023-32.128 6.534-48.965 7.502-27.026-0.159-53.33-1.887-79.442-5.087-24.865 9.801-46.141 23.678-64.053 41.011-36.902 41.363-65.29 91.273-81.799 146.319 6.396 45.054 10.684 87.87 12.092 130.75 1.28 16 1.28 32 0 48 1.036 4.421 1.63 9.497 1.63 14.712 0 15.775-5.436 30.281-14.536 41.746-9.327 9.006-22.207 14.643-36.403 14.643-0.89 0-1.775-0.022-2.654-0.066l161.404 0.005 192-192v-264.96z" />
<glyph unicode="&#xe939;" glyph-name="file-submodule" horiz-adv-x="896" d="M640 576h-384v-448h576c35.2 0 64 28.8 64 64v320h-256v64zM576 448h-256v64h256v-64zM832 768h-384v64c0 42.24-19.84 64-64 64h-320c-35.2 0-64-28.8-64-64v-640c0-35.2 28.8-64 64-64h128v448c0 35.2 28.8 64 64 64h384c35.2 0 64-28.8 64-64h192v128c0 35.2-28.8 64-64 64zM384 768h-320v64h320v-64z" />
<glyph unicode="&#xe93a;" glyph-name="file-symlink-directory" horiz-adv-x="896" d="M832 768h-384v64c0 42.24-19.84 64-64 64h-320c-35.2 0-64-28.8-64-64v-640c0-35.2 28.8-64 64-64h768c35.2 0 64 28.8 64 64v512c0 35.2-28.8 64-64 64zM64 832h320v-64h-320v64zM448 256v128c-62.72 1.28-117.76-14.080-163.2-44.8s-76.16-80-92.8-147.2c1.28 104.96 24.96 184.32 72.32 238.72 46.72 53.76 108.16 81.28 184.32 81.28v128l256-192-256-192h-0.64z" />
<glyph unicode="&#xe93b;" glyph-name="file-symlink-file" horiz-adv-x="768" d="M544 960h-480c-35.2 0-64-28.8-64-64v-768c0-35.2 28.8-64 64-64h640c35.2 0 64 28.8 64 64v608l-224 224zM704 128h-640v768h448l192-192v-576zM384 736l256-192-256-192v128c-62.72 1.28-117.76-14.080-163.2-44.8s-76.16-80-92.8-147.2c1.28 104.96 24.96 184.32 72.32 238.72 46.72 53.76 108.16 81.28 184.32 81.28v128h-0.64z" />
<glyph unicode="&#xe93c;" glyph-name="file-text" horiz-adv-x="768" d="M384 704h-256v64h256v-64zM128 512h448v64h-448v-64zM128 384h448v64h-448v-64zM128 256h448v64h-448v-64zM768 736v-608c0-35.2-28.8-64-64-64h-640c-35.2 0-64 28.8-64 64v768c0 35.2 28.8 64 64 64h480l224-224zM704 704l-192 192h-448v-768h640v576z" />
<glyph unicode="&#xe93d;" glyph-name="file-zip" horiz-adv-x="768" d="M544 960h-480c-35.346 0-64-28.654-64-64v-768c0-35.346 28.654-64 64-64h640c35.346 0 64 28.654 64 64v608l-224 224zM704 128h-640v768h192v-64h64v64h192l192-192v-576zM320 768v64h64v-64h-64zM256 768h64v-64h-64v64zM320 640v64h64v-64h-64zM256 640h64v-64h-64v64zM320 512v64h64v-64h-64zM256 430.080c-38.313-22.415-63.708-63.249-64-110.038v-64.042h256v64c0 70.692-57.308 128-128 128v64h-64v-81.92zM384 384v-64h-128v64h128z" />
<glyph unicode="&#xe93e;" glyph-name="file" horiz-adv-x="768" d="M384 704h-256v64h256v-64zM128 512h448v64h-448v-64zM128 384h448v64h-448v-64zM128 256h448v64h-448v-64zM768 736v-608c0-35.2-28.8-64-64-64h-640c-35.2 0-64 28.8-64 64v768c0 35.2 28.8 64 64 64h480l224-224zM704 704l-192 192h-448v-768h640v576z" />
<glyph unicode="&#xe93f;" glyph-name="flame" horiz-adv-x="768" d="M323.2 1004.16c51.84-138.88 26.24-216.32-33.28-275.84-62.72-67.2-163.2-117.12-232.32-215.040-92.8-131.2-108.8-417.92 225.92-492.8-140.8 74.24-170.88 289.28-19.2 423.040-39.040-129.92 33.92-213.12 124.16-183.040 88.96 30.080 147.2-33.92 145.28-106.88-1.28-49.92-19.84-92.16-72.32-115.84 218.88 37.76 305.92 218.88 305.92 355.84 0 181.76-161.92 206.080-80 359.040-97.28-8.32-129.92-72.32-120.96-176 5.76-69.12-65.28-115.2-119.040-85.12-42.88 26.24-42.24 76.16-3.84 113.92 80 78.72 112 261.76-120.32 398.080l-1.28 1.28 1.28-0.64z" />
<glyph unicode="&#xe940;" glyph-name="fold" horiz-adv-x="896" d="M448 448l192-192h-128v-192h-128v192h-128l192 192zM640 832h-128v192h-128v-192h-128l192-192 192 192zM896 704c0 35.2-28.8 64-64 64h-160l-64-64h192l-128-128h-448l-128 128h192l-64 64h-160c-35.2 0-64-28.8-64-64l160-160-160-160c0-35.2 28.8-64 64-64h160l64 64h-192l128 128h448l128-128h-192l64-64h160c35.2 0 64 28.8 64 64l-160 160 160 160z" />
<glyph unicode="&#xe941;" glyph-name="gear" horiz-adv-x="896" d="M896 462.72v102.4l-124.16 40.96-28.8 69.76 56.32 117.76-72.32 72.32-115.84-58.24-69.76 28.8-44.16 122.88h-102.4l-40.32-124.16-71.040-28.8-117.76 56.32-72.32-72.32 58.24-115.84-28.8-69.76-122.88-43.52v-101.76l124.16-40.96 28.8-69.76-56.32-117.76 72.32-72.32 115.84 58.24 69.76-28.8 44.16-122.88h101.76l40.32 124.16 71.040 28.8 117.76-56.32 72.32 72.32-58.88 115.84 30.080 69.76 122.88 44.16v-1.28zM448 320c-106.24 0-192 85.76-192 192s85.76 192 192 192 192-85.76 192-192-85.76-192-192-192z" />
<glyph unicode="&#xe942;" glyph-name="gift" horiz-adv-x="896" d="M832 768h-88.32c12.16 21.12 21.12 42.88 23.040 58.24 3.84 42.88-7.040 78.080-33.28 103.040-23.040 24.32-51.84 30.72-87.040 30.72h-7.040c-33.92-1.28-71.040-16-97.92-37.12s-46.72-46.080-62.080-76.8c-14.72 30.72-35.2 56.32-62.080 76.8s-64 37.12-97.92 37.12h-1.92c-35.84 0-67.84-5.76-92.16-30.72-26.24-24.96-37.12-60.16-33.28-103.040 1.92-14.72 10.88-37.12 23.040-58.24h-88.32c-35.2 0-64-28.8-64-64v-192h64v-320c0-35.2 28.8-64 64-64h576c35.2 0 64 28.8 64 64v320h64v192c0 35.2-28.8 64-64 64h1.28zM526.080 824.32c10.88 23.040 26.88 42.88 48 58.88 19.2 14.72 46.080 24.96 67.2 26.24h5.76c28.8 0 42.24-7.040 51.2-16s21.12-24.96 19.2-60.8c-3.2-12.16-16-39.040-32-64h-185.6l26.24 56.32v-0.64zM261.76 893.44c8.32 8.32 19.84 16 58.24 16 19.84 0 46.080-10.88 65.92-26.24 21.12-16 37.12-35.2 48-58.88l26.88-56.32h-185.6c-16 24.96-28.8 51.84-32 64-1.92 35.84 10.24 51.84 19.2 60.8l-0.64 0.64zM448 192.64h-256v319.36h256v-319.36zM448 576.64h-320v127.36h320v-127.36zM768 192.64h-256v319.36h256v-319.36zM832 576.64h-320v127.36h320v-127.36z" />
<glyph unicode="&#xe943;" glyph-name="gist-secret" horiz-adv-x="896" d="M512 352l64-224h-256l64 224-48 96h224l-48-96zM640 640h-384l-128-64h640l-128 64zM576 896l-128-64-128 64-64-192h384l-64 192zM833.92 400l-193.92 48 64-128-128-192h206.080c28.8 0 55.040 19.84 62.080 48l35.84 145.92c8.96 33.92-12.16 69.12-46.080 78.080zM256 448l-193.92-48c-33.92-8.96-55.040-44.16-46.080-78.080l35.84-145.92c7.040-28.16 33.28-48 62.080-48h206.080l-128 192 64 128z" />
<glyph unicode="&#xe944;" glyph-name="gist" horiz-adv-x="768" d="M480 704l160-160-160-160-48 48 112 112-112 112 48 48zM288 704l-160-160 160-160 48 48-112 112 112 112-48 48zM0 192v704c0 35.2 28.8 64 64 64h640c35.2 0 64-28.8 64-64v-704c0-35.2-28.8-64-64-64h-640c-35.2 0-64 28.8-64 64zM64 192h640v704h-640v-704z" />
<glyph unicode="&#xe945;" glyph-name="git-branch" horiz-adv-x="640" d="M640 704c0 71.040-56.96 128-128 128-0.1 0-0.219 0-0.337 0-70.445 0-127.552-57.107-127.552-127.552 0-47.009 25.43-88.079 63.285-110.202l0.604-19.526c-1.28-33.28-14.72-62.72-40.32-88.32s-55.040-39.040-88.32-40.32c-53.12-1.28-94.72-10.24-128-28.8v304.64c38.459 22.45 63.889 63.519 63.889 110.528 0 70.445-57.107 127.552-127.552 127.552-0.119 0-0.237 0-0.355 0-71.022 0-127.342-56.96-127.342-128 0.292-46.831 25.687-87.665 63.396-109.753l0.604-420.167c-37.76-22.4-64-63.36-64-110.080 0-71.040 56.96-128 128-128s128 56.96 128 128c0 33.92-12.8 64-33.92 87.040 5.76 3.84 30.72 26.24 37.76 30.080 16 7.040 35.84 10.88 60.16 10.88 67.2 3.2 124.8 28.8 176 80s76.8 126.72 80 193.28h-1.28c39.040 23.040 65.28 64 65.28 110.72zM128 908.8c42.24 0 76.8-35.2 76.8-76.8s-35.2-76.8-76.8-76.8c-41.6 0-76.8 35.2-76.8 76.8s35.2 76.8 76.8 76.8zM128 114.56c-42.24 0-76.8 35.2-76.8 76.8s35.2 76.8 76.8 76.8c41.6 0 76.8-35.2 76.8-76.8s-35.2-76.8-76.8-76.8zM512 626.56c-42.24 0-76.8 35.2-76.8 76.8s35.2 76.8 76.8 76.8c41.6 0 76.8-35.2 76.8-76.8s-35.2-76.8-76.8-76.8z" />
<glyph unicode="&#xe946;" glyph-name="git-commit" horiz-adv-x="896" d="M695.040 576c-28.8 110.080-128 192-247.040 192s-218.24-81.92-247.040-192h-200.96v-128h200.96c28.8-110.080 128-192 247.040-192s218.24 81.92 247.040 192h200.96v128h-200.96zM448 371.2c-78.080 0-140.8 62.72-140.8 140.8s62.72 140.8 140.8 140.8c78.080 0 140.8-62.72 140.8-140.8s-62.72-140.8-140.8-140.8z" />
<glyph unicode="&#xe947;" glyph-name="git-compare" horiz-adv-x="896" d="M320 256h-64c-17.28 1.28-30.72 7.040-44.16 19.84s-19.2 26.88-19.84 44.16v401.92c38.459 22.45 63.889 63.519 63.889 110.528 0 70.445-57.107 127.552-127.552 127.552-0.119 0-0.237 0-0.355 0-0.082 0-0.2 0-0.319 0-70.445 0-127.552-57.107-127.552-127.552 0-47.009 25.43-88.079 63.285-110.202l0.604-402.246c1.92-49.92 21.76-94.080 60.16-131.84s81.92-58.24 131.84-60.16h64v-128l192 192-192 192v-128zM128 908.8c42.24 0 76.8-35.2 76.8-76.8s-35.2-76.8-76.8-76.8c-41.6 0-76.8 35.2-76.8 76.8s35.2 76.8 76.8 76.8zM832 302.080v401.92c-1.92 49.92-21.76 94.080-60.16 131.84s-81.92 58.24-131.84 60.16h-64v128l-192-192 192-192v128h64c17.28-1.28 30.72-7.040 44.16-19.84s19.2-26.88 19.84-44.16v-401.92c-38.459-22.45-63.889-63.519-63.889-110.528 0-70.445 57.107-127.552 127.552-127.552 0.119 0 0.237 0 0.355 0 0.082 0 0.2 0 0.319 0 70.445 0 127.552 57.107 127.552 127.552 0 47.009-25.43 88.079-63.285 110.202zM768 115.2c-42.24 0-76.8 35.2-76.8 76.8s35.2 76.8 76.8 76.8c41.6 0 76.8-35.2 76.8-76.8s-35.2-76.8-76.8-76.8z" />
<glyph unicode="&#xe948;" glyph-name="git-merge" horiz-adv-x="768" d="M640 576c-46.72 0-88.32-26.24-110.72-65.28v1.28c-67.2 1.28-145.28 23.040-200.32 65.28-48 37.12-96 103.040-120.96 156.16 29.322 23.571 47.93 59.437 47.93 99.649 0 70.445-57.107 127.552-127.552 127.552-0.133 0-0.266 0-0.399-0.001-71.019 0-127.979-57.6-127.979-128.64 0.292-46.831 25.687-87.665 63.396-109.753l0.604-420.167c-37.76-22.4-64-63.36-64-110.080 0-71.040 56.96-128 128-128 0.1 0 0.219 0 0.337 0 70.445 0 127.552 57.107 127.552 127.552 0 47.009-25.43 88.079-63.285 110.202l-0.604 231.366c42.88-44.8 92.16-81.28 147.2-108.16s129.92-40.32 190.080-40.96v1.28c23.040-39.040 64-65.28 110.72-65.28 71.040 0 128 56.96 128 128s-56.96 128-128 128zM204.8 192c0-42.24-35.2-76.8-76.8-76.8s-76.8 35.2-76.8 76.8c0 41.6 35.2 76.8 76.8 76.8s76.8-35.2 76.8-76.8zM128 755.2c-42.24 0-76.8 35.2-76.8 76.8s35.2 76.8 76.8 76.8c41.6 0 76.8-35.2 76.8-76.8s-35.2-76.8-76.8-76.8zM640 371.2c-42.24 0-76.8 35.2-76.8 76.8s35.2 76.8 76.8 76.8c41.6 0 76.8-35.2 76.8-76.8s-35.2-76.8-76.8-76.8z" />
<glyph unicode="&#xe949;" glyph-name="git-pull-request" horiz-adv-x="768" d="M704 302.080v401.92c-1.92 49.92-21.76 94.080-60.16 131.84s-81.92 58.24-131.84 60.16h-64v128l-192-192 192-192v128h64c17.28-1.28 30.72-7.040 44.16-19.84s19.2-26.88 19.84-44.16v-401.92c-38.459-22.45-63.889-63.519-63.889-110.528 0-70.445 57.107-127.552 127.552-127.552 0.119 0 0.237 0 0.355 0 0.082 0 0.2 0 0.319 0 70.445 0 127.552 57.107 127.552 127.552 0 47.009-25.43 88.079-63.285 110.202zM640 115.2c-42.24 0-76.8 35.2-76.8 76.8s35.2 76.8 76.8 76.8c41.6 0 76.8-35.2 76.8-76.8s-35.2-76.8-76.8-76.8zM256 832c0 71.040-56.96 128-128 128-0.1 0-0.219 0-0.337 0-70.445 0-127.552-57.107-127.552-127.552 0-47.009 25.43-88.079 63.285-110.202l0.604-420.166c-38.459-22.45-63.889-63.519-63.889-110.528 0-70.445 57.107-127.552 127.552-127.552 0.119 0 0.237 0 0.355 0 0.082 0 0.2 0 0.319 0 70.445 0 127.552 57.107 127.552 127.552 0 47.009-25.43 88.079-63.285 110.202l-0.604 420.166c37.76 21.76 64 62.72 64 110.080zM204.8 192c0-42.24-35.2-76.8-76.8-76.8s-76.8 35.2-76.8 76.8c0 41.6 35.2 76.8 76.8 76.8s76.8-35.2 76.8-76.8zM128 755.2c-42.24 0-76.8 35.2-76.8 76.8s35.2 76.8 76.8 76.8c41.6 0 76.8-35.2 76.8-76.8s-35.2-76.8-76.8-76.8z" />
<glyph unicode="&#xe94a;" glyph-name="globe" horiz-adv-x="896" d="M448 960c-247.040 0-448-200.96-448-448s200.96-448 448-448c30.72 0 60.16 3.2 88.32 8.96-10.88 5.12-12.8 46.72-1.28 69.76 12.16 26.24 51.84 92.8 12.8 115.2s-28.16 32-51.84 58.24c-23.68 26.24-14.080 30.080-16 37.12-5.12 21.76 23.040 56.96 24.96 60.16 1.28 3.84 1.28 17.28 0 21.12 0 5.12-17.28 14.080-21.76 14.72-3.84 0-7.040-7.040-12.8-8.32s-32 16-37.76 21.12c-5.76 5.12-8.96 14.72-17.28 21.76-8.32 8.32-8.96 1.92-21.12 7.040s-51.2 19.84-81.92 30.72c-30.72 12.16-33.28 30.080-33.28 42.24-1.28 12.8-19.2 30.080-26.88 42.88-8.96 12.8-10.24 30.080-12.8 26.24s16-49.92 12.8-51.84c-3.2-1.28-10.24 12.8-19.2 24.32-8.96 12.16 8.96 5.76-19.2 60.8s8.96 83.2 10.88 112c1.92 28.8 24.32-10.88 12.16 8.32s0 56.96-8.96 71.040c-8.32 14.080-56.32-16-56.32-16 1.28 14.080 44.16 37.12 74.24 58.88s49.92 3.84 74.24-3.2c24.96-8.32 26.24-5.76 17.92 3.2-8.32 8.32 3.84 10.88 23.040 8.32 17.92-3.2 24.32-26.24 53.12-23.040 30.080 1.92 3.2-5.76 7.040-14.080s-3.84-7.040-24.32-19.2c-19.2-12.8 1.28-14.080 35.2-39.040s24.32 16 19.84 35.2c-4.48 19.2 24.96 3.84 24.96 3.84 21.12-14.080 17.28-1.28 32-5.12s58.24-40.96 58.24-40.96c-53.12-28.16-19.84-30.72-10.88-37.76s-17.92-19.2-17.92-19.2c-10.88 10.88-12.16-1.28-19.2-5.12s-1.28-14.080-1.28-14.080c-35.84-5.76-28.16-44.16-26.88-53.12 0-8.96-24.32-23.040-30.080-37.12-5.76-12.8 16-40.96 3.84-42.24-12.16-1.92-21.76 42.24-83.84 26.24-19.2-5.12-60.16-26.24-37.76-69.12 23.040-44.16 58.88 12.16 71.040 5.76s-3.84-33.92-1.28-35.2c2.56-1.28 33.92-1.28 35.84-39.040s49.28-33.92 58.88-35.2c10.88 0 44.8 28.16 49.28 28.8 3.84 1.92 24.32 17.92 65.92-5.76 42.24-23.040 62.72-19.84 76.8-30.080s5.12-30.080 17.92-37.12c12.8-7.040 67.84 1.92 81.92-19.84s-56.32-133.76-78.080-145.92c-21.76-12.16-30.72-40.96-53.76-58.88s-51.84-40.96-81.28-58.24c-26.24-14.72-30.080-42.24-42.24-51.2 200.96 44.8 350.72 224 350.72 437.76 0 247.040-200.96 448-448 448l1.28 1.28zM552.96 540.16c-5.76-1.92-17.92-14.080-49.92 5.12-30.72 19.2-51.84 14.72-55.040 17.92 0 0-3.2 7.040 10.88 8.96 28.16 3.2 62.72-26.24 71.040-26.24s12.16 8.32 26.24 3.2c14.080-5.12 3.2-8.32-3.2-8.96zM405.76 915.2c-3.2 1.92 1.92 5.12 5.76 8.96 1.92 1.92 1.28 7.040 3.2 8.96 7.040 7.040 39.040 16 33.28-1.92-7.040-17.28-37.12-19.2-42.24-16zM484.48 858.24c-12.16 1.28-37.12 3.2-33.28 8.96 19.2 17.92-5.76 24.32-21.76 24.32-16 1.28-21.76 10.24-14.080 12.16s39.040-1.28 44.8-5.12c5.12-3.84 33.28-16 35.2-24.32 1.28-8.32 0-16-10.88-16zM578.56 861.44c-8.96-5.76-53.12 26.24-60.8 33.28-35.84 30.72-56.96 19.84-64 26.24s-5.12 12.16 7.040 21.76c12.16 9.6 44.16-3.84 64-5.76 19.2-1.92 42.24-17.28 42.24-35.2 1.28-16 21.12-32 12.16-40.32h-0.64z" />
<glyph unicode="&#xe94b;" glyph-name="grabber" horiz-adv-x="512" d="M512 768v-64h-512v64h512zM0 512h512v64h-512v-64zM0 320h512v64h-512v-64z" />
<glyph unicode="&#xe94c;" glyph-name="graph" d="M1024 128v-64h-1024v960h64v-896h960zM320 192h-128v320h128v-320zM576 192h-128v640h128v-640zM832 192h-128v448h128v-448z" />
<glyph unicode="&#xe94d;" glyph-name="heart" horiz-adv-x="768" d="M716.8 832c-33.28 40.32-80 60.8-140.8 64-62.080 0-108.16-26.88-140.8-64s-49.92-58.88-51.2-64c-1.28 5.12-17.92 26.88-51.2 64s-74.88 64-140.8 64c-60.8-3.2-108.16-24.32-140.8-64-33.28-39.040-49.92-81.92-51.2-128 0-33.28 5.76-97.28 42.88-170.88s149.76-188.16 341.12-341.12c190.72 152.96 305.28 266.88 341.76 341.12s42.24 138.88 42.24 170.88c-1.28 46.080-17.92 88.96-51.2 129.28v-1.28z" />
<glyph unicode="&#xe94e;" glyph-name="history" horiz-adv-x="896" d="M512 192h-128v448h320v-128h-192v-320zM448 960c-140.16 0-264.32-65.28-346.24-165.76l-101.76 101.76v-256h256l-96 96c67.2 85.12 170.88 140.8 288 140.8 200.96 0 364.8-163.84 364.8-364.8s-163.84-364.8-364.8-364.8c-201.327 0.364-364.437 163.473-364.8 364.765 0 21.795 1.92 42.915 5.76 64.035h-83.84c-3.2-21.12-5.12-42.24-5.12-64 0-247.040 200.96-448 448-448s448 200.96 448 448-200.96 448-448 448z" />
<glyph unicode="&#xe94f;" glyph-name="home" d="M1024 448l-192 192v256h-128v-128l-192 192-512-512h128l64-320c0-35.2 28.8-64 64-64h512c35.2 0 64 28.8 64 64l64 320h128zM768 128h-192v256h-128v-256h-192l-76.16 403.84 332.16 332.16 332.16-332.16-76.16-403.84z" />
<glyph unicode="&#xe950;" glyph-name="horizontal-rule" horiz-adv-x="640" d="M64 576h128v-128h64v384h-64v-192h-128v192h-64v-384h64v128zM640 448v128h-64v-128h64zM640 640v128h-64v-128h64zM448 640v128h128v64h-192v-384h64v128h128v64h-128zM0 192h640v128h-640v-128z" />
<glyph unicode="&#xe951;" glyph-name="hubot" horiz-adv-x="896" d="M192 640c-35.2 0-64-28.8-64-64v-128c0-35.2 28.8-64 64-64h512c35.2 0 64 28.8 64 64v128c0 35.2-28.8 64-64 64h-512zM704 528l-80-80h-96l-80 80-80-80h-96l-80 80v48h48l80-80 80 80h96l80-80 80 80h48v-48zM320 320h256v-64h-256v64zM448 896c-247.040 0-448-186.24-448-416v-288c0-35.2 28.8-64 64-64h768c35.2 0 64 28.8 64 64v288c0 229.76-200.96 416-448 416zM832 192h-768v288c0 197.76 168.96 357.76 384 357.76s384-160 384-357.76v-288z" />
<glyph unicode="&#xe952;" glyph-name="inbox" horiz-adv-x="896" d="M896 448l-72.32 456.96c-5.12 30.72-32 55.040-64 55.040h-623.36c-32 0-58.88-24.32-64-55.040l-72.32-456.96v-320c0-35.2 28.8-64 64-64h768c35.2 0 64 28.8 64 64v320zM686.080 412.8l-28.16-56.96c-10.88-21.76-33.28-35.84-58.24-35.84h-304.64c-24.32 0-46.080 14.080-56.96 35.2l-28.16 58.24c-10.88 21.12-33.28 35.2-56.96 35.2h-88.96l64 448h640l64-448h-88.32c-24.96 0-46.72-14.080-58.24-35.2l0.64-0.64z" />
<glyph unicode="&#xe953;" glyph-name="info" horiz-adv-x="896" d="M403.2 659.84c-11.084 10.938-17.949 26.127-17.949 42.919 0 0.661 0.011 1.32 0.032 1.976-0.002 17.824 5.758 33.184 17.918 44.704s26.88 17.92 44.8 17.92c17.92 0 33.28-5.76 44.8-17.92s17.92-26.88 17.92-44.8c0-17.92-5.76-33.28-17.92-44.8-11.418-11.645-27.232-18.942-44.752-19.199-17.968-0.001-33.328 7.039-44.848 19.199zM512 512.64c-1.28 16-7.040 30.72-19.84 44.16-12.8 12.16-26.88 19.2-44.16 19.84h-64c-17.28-1.28-30.72-8.32-44.16-19.84-12.8-12.8-19.2-28.16-19.84-44.16h64v-192c1.28-17.28 7.040-32 19.84-44.16 12.8-12.8 26.88-19.84 44.16-19.84h64c17.28 0 30.72 7.040 44.16 19.84 12.8 12.16 19.2 26.88 19.84 44.16h-64v192zM448 876.8c-200.96 0-364.8-162.56-364.8-363.52s163.84-364.8 364.8-364.8 364.8 163.2 364.8 364.8c0 201.6-163.84 364.16-364.8 364.16v-0.64zM448 961.28c247.040 0 448-200.96 448-448s-200.96-448-448-448-448 199.68-448 448 200.96 448 448 448z" />
<glyph unicode="&#xe954;" glyph-name="issue-closed" d="M448 384h128v-128h-128v128zM576 768h-128v-320h128v320zM672 672l-64-64 160-160 256 288-64 64-192-224-96 96zM512 147.2c-201.327 0.364-364.437 163.473-364.8 364.765 0 200.995 163.84 364.835 364.8 364.835 117.12 0 220.8-56.32 288-140.8l58.88 58.88c-82.165 101.071-206.492 165.121-345.78 165.121-0.387 0-0.774 0-1.16-0.001-246.98 0-447.94-200.96-447.94-448s200.96-448 448-448 448 200.96 448 448l-97.28-97.28c-42.24-154.24-183.040-268.16-350.72-268.16v0.64z" />
<glyph unicode="&#xe955;" glyph-name="issue-opened" horiz-adv-x="896" d="M448 876.8c200.96 0 364.8-163.84 364.8-364.8s-163.84-364.8-364.8-364.8c-201.327 0.364-364.437 163.473-364.8 364.765 0 200.995 163.84 364.835 364.8 364.835zM448 960c-247.040 0-448-200.96-448-448s200.96-448 448-448 448 200.96 448 448-200.96 448-448 448zM512 768h-128v-320h128v320zM512 384h-128v-128h128v128z" />
<glyph unicode="&#xe956;" glyph-name="issue-reopened" horiz-adv-x="896" d="M512 448h-128v320h128v-320zM384 256h128v128h-128v-128zM789.12 384h-149.12l96-96c-67.2-85.12-170.88-140.8-288-140.8-201.327 0.364-364.437 163.473-364.8 364.765 0 21.795 1.92 42.915 5.76 64.035h-83.84c-3.2-21.12-5.12-42.24-5.12-64 0-247.040 200.96-448 448-448 140.16 0 264.32 65.28 346.24 165.76l101.76-101.76v256h-106.88zM106.88 640h149.12l-96 96c67.2 85.12 170.88 140.8 288 140.8 200.96 0 364.8-163.84 364.8-364.8 0-21.76-1.92-42.88-5.76-64h83.84c3.2 21.12 5.12 42.24 5.12 64 0 247.040-200.96 448-448 448-140.16 0-264.32-65.28-346.24-165.76l-101.76 101.76v-256h106.88z" />
<glyph unicode="&#xe957;" glyph-name="italic" horiz-adv-x="384" d="M179.84 704h126.72l-114.56-576h-128l115.84 576zM202.88 876.8c0 44.8 37.12 83.2 85.12 83.2 35.84 0 72.32-24.32 72.32-65.92 0-48-37.76-83.2-85.12-83.2-37.12 0-72.32 24.32-72.32 65.92z" />
<glyph unicode="&#xe958;" glyph-name="jersey" horiz-adv-x="896" d="M288 640l-32-32v-320l32-32h128l32 32v320l-32 32h-128zM384 320h-64v256h64v-256zM785.28 784c-14.080 88.32-19.84 168.32-17.28 240h-190.72c0-17.28-8.32-30.72-24.96-44.16-16-12.8-40.32-19.2-72.32-19.2s-56.32 5.76-72.32 19.2c-14.72 12.8-23.040 26.88-23.040 44.16h-192.64c3.2-72.32-1.92-152.32-16-240-12.8-88.32-51.2-136.32-112-144v-576c1.28-17.28 7.040-30.72 19.84-44.16s26.88-19.2 44.16-19.84h704c17.28 1.28 30.72 7.040 44.16 19.84s19.2 26.88 19.84 44.16v576c-60.8 8.32-97.92 56.32-112 144h1.28zM832 64h-704v512c56.96 32 94.72 80 110.080 144s19.84 144 17.92 240h64c-1.28-49.92 10.24-94.080 33.28-131.84 23.040-37.12 65.28-56.96 128-60.16 62.72 1.28 104.96 21.12 128 60.16 23.040 37.76 32 81.92 30.72 131.84h64c1.28-90.88 8.32-163.2 21.12-216.32 12.8-51.84 44.16-128 106.88-168.32v-511.36zM544 640l-32-32v-320l32-32h128l32 32v320l-32 32h-128zM640 320h-64v256h64v-256z" />
<glyph unicode="&#xe959;" glyph-name="key" horiz-adv-x="896" d="M821.12 885.12c-48 48-108.16 72.96-181.12 74.88-72.32-1.92-133.12-26.88-181.12-74.88s-72.32-108.16-74.24-181.12c0-19.2 1.92-37.76 5.76-56.96l-390.4-391.040v-64l64-64h128l64 64v64h64v64h64v64h128l69.76 71.040c19.2-5.12 37.76-7.040 58.24-7.040 72.96 1.92 133.12 26.88 181.12 74.88s72.96 108.16 74.88 181.12c-1.92 72.96-26.88 133.12-74.88 181.12zM704 679.68c-49.28 0-88.32 39.040-88.32 88.32s39.040 88.32 88.32 88.32c49.28 0 88.32-39.040 88.32-88.32s-39.040-88.32-88.32-88.32z" />
<glyph unicode="&#xe95a;" glyph-name="keyboard" d="M640 704h-64v64h64v-64zM192 640h-64v-64h64v64zM512 768h-64v-64h64v64zM256 768h-128v-64h128v64zM768 320h128v64h-128v-64zM512 576h64v64h-64v-64zM256 384h-128v-64h128v64zM768 768h-64v-64h64v64zM896 768h-64v-64h64v64zM768 448h128v192h-128v-192zM1024 832v-576c0-35.2-28.8-64-64-64h-896c-35.2 0-64 28.8-64 64v576c0 35.2 28.8 64 64 64h896c35.2 0 64-28.8 64-64zM960 832h-896v-576h896v576zM384 576h64v64h-64v-64zM384 768h-64v-64h64v64zM256 576h64v64h-64v-64zM320 320h384v64h-384v-64zM640 576h64v64h-64v-64zM192 512h-64v-64h64v64zM512 512v-64h64v64h-64zM384 512v-64h64v64h-64zM320 512h-64v-64h64v64zM640 448h64v64h-64v-64z" />
<glyph unicode="&#xe95b;" glyph-name="law" horiz-adv-x="896" d="M448 768c-53.12 0-96 42.88-96 96s42.88 96 96 96 96-42.88 96-96-42.88-96-96-96zM896 384c0-71.040-56.96-128-128-128h-64c-71.040 0-128 56.96-128 128l128 256h-64c-35.2 0-64 28.8-64 64h-64v-512c26.88 0 64-28.8 64-64h64c26.88 0 64-28.8 64-64h-512c0 35.2 37.12 64 64 64h64c0 35.2 37.12 64 64 64h1.92l-1.92 512h-64c0-35.2-28.8-64-64-64h-64l128-256c0-71.040-56.96-128-128-128h-64c-71.040 0-128 56.96-128 128l128 256h-64v64h192c0 35.2 28.8 64 64 64h256c35.2 0 64-28.8 64-64h192v-64h-64l128-256zM160 576l-96-192h192l-96 192zM832 384l-96 192-96-192h192z" />
<glyph unicode="&#xe95c;" glyph-name="light-bulb" horiz-adv-x="768" d="M416 1024c-193.28 0-352-140.16-352-320 0-58.88 35.2-144 64-192 85.76-144 113.92-177.92 128-256v-64h320v64c14.080 78.080 42.24 112 128 256 28.8 48 64 133.12 64 192 0 179.84-158.72 320-352 320zM648.96 545.28c-16-28.16-30.080-51.2-42.88-71.040-55.040-90.24-80-131.84-92.8-206.72-1.28-3.2-1.28-7.040-1.28-10.88h-192c0 3.84 0 8.32-1.28 10.88-12.8 74.88-37.76 117.12-92.8 206.72-12.8 19.84-26.88 42.88-42.88 71.040-26.88 44.8-55.040 117.12-55.040 158.72 0 140.8 129.28 256 288 256 78.080 0 151.040-26.88 206.080-76.16 53.12-48 81.92-112 81.92-179.84 0-42.24-28.16-113.92-55.040-158.72zM256 128h320c-14.72-72.96-83.2-128-160-128s-145.28 55.040-160 128z" />
<glyph unicode="&#xe95d;" glyph-name="link-external" horiz-adv-x="768" d="M704 384h64v-192c0-35.2-28.8-64-64-64h-640c-35.2 0-64 28.8-64 64v640c0 35.2 28.8 64 64 64h192v-64h-192v-640h640v192zM384 896l144-144-208-208 96-96 208 208 144-144v384h-384z" />
<glyph unicode="&#xe95e;" glyph-name="link" d="M256 448h64v-64h-64c-96 0-192 108.16-192 224s99.2 224 192 224h256c92.8 0 192-108.16 192-224 0-90.24-58.24-174.080-128-208v74.24c37.12 28.8 64 81.28 64 133.76 0 81.92-65.28 160-128 160h-256c-62.72 0-128-78.080-128-160s64-160 128-160zM832 640h-64v-64h64c64 0 128-78.080 128-160s-65.28-160-128-160h-256c-62.72 0-128 78.080-128 160 0 53.12 26.88 104.96 64 133.76v74.24c-69.76-33.92-128-117.76-128-208 0-115.84 99.2-224 192-224h256c92.8 0 192 108.16 192 224s-96 224-192 224z" />
<glyph unicode="&#xe95f;" glyph-name="list-ordered" horiz-adv-x="768" d="M768 192c0-37.76 0-64-37.76-64h-436.48c-37.76 0-37.76 26.24-37.76 64s0 64 37.76 64h435.84c37.76 0 37.76-26.24 37.76-64h0.64zM293.76 768h435.84c37.76 0 37.76 26.24 37.76 64s0 64-37.76 64h-435.84c-37.76 0-37.76-26.24-37.76-64s0-64 37.76-64zM729.6 576h-435.84c-37.76 0-37.76-26.24-37.76-64s0-64 37.76-64h435.84c37.76 0 37.76 26.24 37.76 64s0 64-37.76 64zM128 960h-46.080c-19.2-12.16-37.12-16-65.92-21.76v-42.24h48v-136.96h-53.76v-55.040h181.76v55.040h-64v200.96zM144 439.68c-10.88 0-28.8-1.92-42.24-3.84 33.92 35.84 72.96 80 72.96 120.96-1.28 49.92-35.84 83.2-87.040 83.2-37.76 0-62.080-12.8-88.32-40.96l37.12-37.12c12.16 12.16 24.32 24.32 40.96 24.32 17.92 0 30.72-10.24 30.72-33.28 0-33.92-49.28-76.8-108.8-131.84v-37.12h192l-5.76 56.32h-42.24l0.64-0.64zM138.88 197.76v1.92c28.16 12.16 40.96 30.080 40.96 55.040 0 44.8-35.84 71.040-92.16 71.040-30.72 0-56.96-12.16-81.92-33.28l35.2-40.96c16 12.8 28.16 19.84 44.16 19.84 17.28 0 26.88-8.32 26.88-23.040 0-17.28-12.8-28.16-55.040-28.16v-48c53.12 0 62.72-10.88 62.72-30.080 0-16-14.72-24.32-37.12-24.32-17.92 0-35.84 8.96-51.84 24.32l-30.72-42.24c19.2-23.040 49.28-35.84 90.24-35.84 53.12 0 97.92 26.24 97.92 74.24 0 32-19.84 51.84-49.28 60.16v-0.64z" />
<glyph unicode="&#xe960;" glyph-name="list-unordered" horiz-adv-x="768" d="M128 192c0-37.76 0-64-37.76-64h-52.48c-37.76 0-37.76 26.24-37.76 64s0 64 37.76 64h51.84c37.76 0 37.76-26.24 37.76-64h0.64zM293.76 768h435.84c37.76 0 37.76 26.24 37.76 64s0 64-37.76 64h-435.84c-37.76 0-37.76-26.24-37.76-64s0-64 37.76-64zM90.24 576h-52.48c-37.76 0-37.76-26.24-37.76-64s0-64 37.76-64h51.84c37.76 0 37.76 26.24 37.76 64s0 64-37.76 64h0.64zM90.24 896h-52.48c-37.76 0-37.76-26.24-37.76-64s0-64 37.76-64h51.84c37.76 0 37.76 26.24 37.76 64s0 64-37.76 64h0.64zM730.24 576h-436.48c-37.76 0-37.76-26.24-37.76-64s0-64 37.76-64h435.84c37.76 0 37.76 26.24 37.76 64s0 64-37.76 64h0.64zM730.24 256h-436.48c-37.76 0-37.76-26.24-37.76-64s0-64 37.76-64h435.84c37.76 0 37.76 26.24 37.76 64s0 64-37.76 64h0.64z" />
<glyph unicode="&#xe961;" glyph-name="location" horiz-adv-x="768" d="M384 1024c-211.84 0-384-160-384-352 0-289.28 384-672 384-672s384 382.72 384 672c0 192-172.16 352-384 352zM384 92.8c-119.040 129.92-320 391.040-320 579.2 0 158.72 144 288 320 288 85.76 0 167.040-30.72 227.84-87.040 58.88-55.040 92.16-126.080 92.16-200.96 0-188.16-200.96-449.28-320-579.2zM512 672c0-71.040-56.96-128-128-128s-128 56.96-128 128c0 71.040 56.96 128 128 128s128-56.96 128-128z" />
<glyph unicode="&#xe962;" glyph-name="lock" horiz-adv-x="768" d="M256 192h-64v64h64v-64zM768 576v-448c0-35.2-28.8-64-64-64h-640c-35.2 0-64 28.8-64 64v448c0 35.2 28.8 64 64 64h64v128c0 140.8 115.2 256 256 256s256-115.2 256-256v-128h64c35.2 0 64-28.8 64-64zM243.2 640h282.24v128c0 78.080-62.72 140.8-140.8 140.8s-140.8-62.72-140.8-140.8v-128h-0.64zM704 576h-576v-448h576v448zM256 512h-64v-64h64v64zM256 384h-64v-64h64v64z" />
<glyph unicode="&#xe963;" glyph-name="logo-gist" horiz-adv-x="1600" d="M300.8 465.28h156.8v-257.28c-35.2-17.28-104.96-21.76-161.92-21.76-163.84 0-222.080 140.8-222.080 323.2s58.24 323.84 222.72 323.84c81.92 0 131.84-14.72 209.92-46.72v67.2c-40.96 21.12-106.24 42.24-209.92 42.24-224 0-296.32-172.16-296.32-385.92s71.040-385.92 296.32-385.92c104.96 0 179.84 17.28 229.76 40.96v364.16h-225.28v-64zM709.76 227.2v408.96h-67.2v-401.92c0-80 37.12-110.080 110.080-110.080v56.96c-30.72 0-42.88 10.24-42.88 44.8v1.28zM725.76 785.28c0 28.16-21.12 49.92-49.92 49.92s-49.28-21.76-49.28-49.92 21.12-49.92 49.28-49.92 49.92 21.76 49.92 49.92zM1003.52 421.12c-96 8.32-113.92 30.72-113.92 74.88 0 49.28 21.12 85.76 120.32 85.76 67.2 0 106.24-10.24 145.28-23.040v60.16c-44.16 19.2-97.28 24.96-144 24.96-140.8 0-186.88-76.8-186.88-147.84 0-69.12 30.080-120.32 174.72-133.12 99.2-8.32 113.28-40.32 113.28-85.76 0-46.72-28.16-90.88-131.84-90.88-71.040 0-119.040 12.16-149.12 23.040v-60.16c32-12.8 101.12-24.96 149.12-24.96 152.32 0 200.96 76.8 200.96 154.24 0 81.92-33.92 129.92-176 142.72h-1.92zM1552.64 579.2v55.040h-154.88v160l-69.12-19.84v-135.040l-99.84-28.16v-30.72h99.84v-320c0-97.92 76.16-136.32 160-136.32 12.16 0 33.28 1.28 44.16 3.2v56.96c-12.16-1.92-26.24-1.92-39.040-1.92-62.080 0-96 24.96-96 85.76v311.68h154.88v-0.64z" />
<glyph unicode="&#xe964;" glyph-name="logo-icomoon" horiz-adv-x="2880" d="M1185.92 254.080h-1.28c0.576 0 0.96-0.64 1.536-0.704h0.384l-0.64 0.64zM1186.176 253.376c-5.952-0.064-20.928-3.2-36.736-3.2-49.92 0-67.2 23.040-67.2 53.12v200.384h101.76c5.76 0 10.24 5.12 10.24 12.16v108.8c0 5.76-5.12 10.88-10.24 10.88h-101.76v135.040c0 5.12-3.2 8.32-8.96 8.32h-138.24c-5.76 0-8.96-3.2-8.96-8.32v-138.88s-69.76-17.28-74.24-17.92c-5.12-1.28-8.32-5.76-8.32-10.88v-87.040c0-7.040 5.12-12.16 10.88-12.16h71.040v-209.92c0-156.16 108.8-172.16 183.040-172.16 33.92 0 74.88 10.88 81.28 14.080 3.84 1.28 5.76 5.76 5.76 10.24v96c0.004 0.109 0.006 0.237 0.006 0.366 0 5.557-4.002 10.18-9.281 11.143zM2702.72 394.176c0 115.84-46.72 131.2-96 126.080-38.4-2.56-69.12-21.76-69.12-21.76v-225.28s31.36-21.76 78.080-23.040c65.92-1.92 87.040 21.76 87.040 144zM2858.24 404.416c0-219.52-71.040-282.24-195.2-282.24-104.96 0-161.28 53.12-161.28 53.12s-2.56-29.44-5.76-33.28c-1.92-3.84-5.12-5.12-8.96-5.12h-94.72c-6.4 0-12.16 5.12-12.16 10.88l1.28 711.040c0 5.76 5.12 10.88 10.88 10.88h136.32c5.76 0 10.88-5.12 10.88-10.88v-241.28s52.48 33.92 129.28 33.92l-0.64 1.28c76.8 0 190.080-28.8 190.080-248.32zM2300.16 635.456h-134.4c-7.040 0-10.88-5.12-10.88-12.16v-348.16s-35.2-24.96-83.2-24.96-62.080 21.76-62.080 69.76v304.064c0 5.76-5.12 10.88-10.88 10.88h-136.96c-5.76 0-10.88-5.12-10.88-10.88v-327.040c0-140.8 78.72-176 186.88-176 88.96 0 161.28 49.28 161.28 49.28s3.2-24.96 5.12-28.8c1.28-3.2 5.76-5.76 10.24-5.76h85.76c7.040 0 10.88 5.12 10.88 10.88l1.28 478.080c0 5.76-5.12 10.88-12.16 10.88zM783.36 636.096h-136.32c-5.76 0-10.88-5.76-10.88-12.8v-469.76c0-12.8 8.32-17.28 19.2-17.28h122.88c12.8 0 16 5.76 16 17.28v471.744c0 5.76-5.12 10.88-10.88 10.88zM716.16 852.416c-49.28 0-88.32-39.040-88.32-88.32s39.040-88.32 88.32-88.32c48 0 87.040 39.040 87.040 88.32s-39.040 88.32-87.040 88.32zM1771.52 868.416h-135.040c-5.76 0-10.88-5.12-10.88-10.88v-261.76h-211.84v261.824c0 5.76-5.12 10.88-10.88 10.88h-136.32c-5.76 0-10.88-5.12-10.88-10.88v-711.040c0-5.76 5.76-10.88 10.88-10.88h136.32c5.76 0 10.88 5.12 10.88 10.88v304h211.84l-1.28-304c0-5.76 5.12-10.88 10.88-10.88h136.32c5.76 0 10.88 5.12 10.88 10.88v711.040c0 5.76-5.12 10.88-10.88 10.88zM563.84 553.6v-367.36c0-2.56-0.64-7.040-3.84-8.32 0 0-80-56.96-211.84-56.96-159.36 0-348.16 49.92-348.16 378.88s165.12 396.8 326.4 396.16c139.52 0 195.84-31.36 204.8-37.12 2.56-3.2 3.84-5.76 3.84-8.96l-26.88-113.92c0-5.76-5.76-12.8-12.8-10.88-23.040 7.040-57.6 21.12-138.88 21.12-94.080 0-195.2-26.88-195.2-238.72s96-236.8 165.12-236.8c58.88 0 80 7.040 80 7.040v147.2h-94.080c-7.040 0-12.16 5.12-12.16 10.88v117.76c0 5.76 5.12 10.88 12.16 10.88h239.36c7.040 0 12.16-5.12 12.16-10.88z" />
<glyph unicode="&#xe965;" glyph-name="mail-read" horiz-adv-x="896" d="M384 704h-128v64h128v-64zM576 640h-320v-64h320v64zM896 670.72v-542.72c0-35.2-28.8-64-64-64h-768c-35.2 0-64 28.8-64 64v542.72c0 21.12 10.24 40.32 26.88 51.84l101.12 72.32v37.12c0 35.2 28.8 64 64 64h76.8l179.2 128 179.2-128h76.8c35.2 0 64-28.8 64-64v-37.12l101.12-72.32c17.28-12.16 26.88-30.72 26.88-51.84zM192 544l256-160 256 160v288h-512v-288zM64 160l288 192-288 192v-384zM768 128l-320 192-320-192h640zM832 544l-288-192 288-192v384z" />
<glyph unicode="&#xe966;" glyph-name="mail-reply" horiz-adv-x="768" d="M384 864l-384-288 384-288v192c110.72 0 328.96-60.8 384-280.32 0 291.2-195.84 451.2-384 472.32v192z" />
<glyph unicode="&#xe967;" glyph-name="mail" horiz-adv-x="896" d="M0 768v-512c0-35.2 28.8-64 64-64h768c35.2 0 64 28.8 64 64v512c0 35.2-28.8 64-64 64h-768c-35.2 0-64-28.8-64-64zM832 768l-384-320-384 320h768zM64 672l256-192-256-192v384zM128 256l224 192 96-96 96 96 224-192h-640zM832 288l-256 192 256 192v-384z" />
<glyph unicode="&#xe968;" glyph-name="mark-github" d="M512 1024c-282.88 0-512-229.12-512-512 0-226.56 146.56-417.92 350.080-485.76 25.6-4.48 35.2 10.88 35.2 24.32 0 12.16-0.64 52.48-0.64 95.36-128.64-23.68-161.92 31.36-172.16 60.16-5.76 14.72-30.72 60.16-52.48 72.32-17.92 9.6-43.52 33.28-0.64 33.92 40.32 0.64 69.12-37.12 78.72-52.48 46.080-77.44 119.68-55.68 149.12-42.24 4.48 33.28 17.92 55.68 32.64 68.48-113.92 12.8-232.96 56.96-232.96 252.8 0 55.68 19.84 101.76 52.48 137.6-5.12 12.8-23.040 65.28 5.12 135.68 0 0 42.88 13.44 140.8-52.48 40.96 11.52 84.48 17.28 128 17.28s87.040-5.76 128-17.28c97.92 66.56 140.8 52.48 140.8 52.48 28.16-70.4 10.24-122.88 5.12-135.68 32.64-35.84 52.48-81.28 52.48-137.6 0-196.48-119.68-240-233.6-252.8 18.56-16 34.56-46.72 34.56-94.72 0-68.48-0.64-123.52-0.64-140.8 0-13.44 9.6-29.44 35.2-24.32 204.471 70.528 348.741 261.288 348.8 485.753 0 282.887-229.12 512.007-512 512.007z" />
<glyph unicode="&#xe969;" glyph-name="markdown" d="M950.4 832h-876.8c-40.32 0-73.6-33.28-73.6-73.6v-492.16c0-40.96 33.28-74.24 73.6-74.24h876.16c40.96 0 73.6 33.28 73.6 73.6v492.8c0.64 40.32-32.64 73.6-72.96 73.6zM576 320h-128v192l-96-122.88-96 122.88v-192h-128v384h128l96-128 96 128h128v-384zM767.36 288l-159.36 224h96v192h128v-192h96l-160.64-224z" />
<glyph unicode="&#xe96a;" glyph-name="megaphone" d="M640 960c-10.88 0-23.040-3.2-33.28-8.96-92.16-56.32-318.72-220.16-414.72-247.040-88.32 0-192-42.88-192-160s104.32-160 192-160c19.2-5.12 40.96-14.72 64-26.24v-293.76h128v220.8c85.76-55.040 172.16-117.12 222.72-147.84 10.24-5.76 21.76-8.96 33.28-8.96 33.28 0 64 26.88 64 64v704c0 37.12-30.72 64-64 64zM640 192c-24.32 14.72-56.96 37.12-96 64-10.24 7.040-21.12 14.080-32 21.76v534.4c10.24 7.040 19.84 12.8 30.080 19.84 39.040 26.24 74.24 49.28 97.92 64v-704zM768 576h256v-64h-256v64zM768 448l256-128v-64l-256 128v64zM1024 832v-64l-256-128v64l256 128z" />
<glyph unicode="&#xe96b;" glyph-name="mention" horiz-adv-x="896" d="M421.12 64c80 0 161.28 19.84 227.84 60.16l-26.88 60.16c-53.76-33.28-120.96-53.12-193.92-53.12-206.72 0-360.96 133.12-360.96 366.080 0 279.68 206.72 459.52 421.12 459.52 220.8 0 334.080-140.16 334.080-332.8 0-152.96-85.76-247.040-160-247.040-67.2 0-87.040 46.72-67.2 140.16l46.72 240h-67.2l-7.040-46.080c-26.24 40.32-60.16 53.12-99.84 53.12-140.16 0-234.24-152.96-234.24-280.32 0-106.88 60.16-167.040 147.2-167.040 53.76 0 106.88 33.92 147.2 80 7.040-60.16 60.16-92.8 126.72-92.8 106.88 0 241.28 106.88 241.28 320 0 232.96-154.24 400-394.88 400-266.88 0-501.12-213.12-501.12-533.12 0-280.32 186.88-426.88 421.12-426.88zM401.28 384c-46.72 0-87.040 33.28-87.040 106.88 0 92.8 60.16 206.080 154.24 206.080 33.28 0 53.76-12.8 80-53.12l-33.28-193.28c-40.32-46.72-80-67.2-113.92-67.2v0.64z" />
<glyph unicode="&#xe96c;" glyph-name="milestone" horiz-adv-x="896" d="M512 896h-128v128h128v-128zM768 576h-640c-35.2 0-64 28.8-64 64v128c0 35.2 28.8 64 64 64h640l128-128-128-128zM512 768h-128v-128h128v128zM384 0h128v512h-128v-512z" />
<glyph unicode="&#xe96d;" glyph-name="mirror" d="M992 723.2l-448 300.8-448-300.8c-19.2-12.16-32-28.8-32-51.2v-672l480 256 480-256v672c0 21.76-12.8 39.040-32 51.2zM960 96l-384 208v80h-64v-80l-384-208v576l384 256v-288h64v288l384-256v-576zM384 576h320v128l192-192-192-192v128h-320v-128l-192 192 192 192v-128z" />
<glyph unicode="&#xe96e;" glyph-name="mortar-board" d="M501.12 435.84l-1.605 0.072c3.783-0.988 7.752-1.515 11.845-1.515s8.062 0.526 11.52 1.443l245.12 76.16v-160c0-64-115.2-96-256-96s-256 32-256 96c0 64-256 672 0 160l245.12-76.16zM519.040 844.8c-1.914 0.611-4.116 0.962-6.4 0.962s-4.486-0.352-6.554-1.004l-488.806-152.278c-9.285-2.874-15.913-11.383-15.913-21.44s6.628-18.566 15.754-21.398l110.879-35.242v-113.28c-19.2-10.88-32-32-32-55.040 0-12.16 3.2-23.040 8.96-32-5.12-8.96-8.96-19.84-8.96-32v-165.12c0-35.2 128-35.2 128 0v165.12c0 12.16-3.2 23.040-8.96 32 5.12 8.96 8.96 19.84 8.96 32 0 24.32-12.8 44.16-32 55.040v92.8l312.96-97.92c3.84-1.28 8.96-1.28 12.8 0l488.96 152.32c9.285 2.874 15.913 11.383 15.913 21.44s-6.628 18.566-15.754 21.398l-488.479 153.002 0.64 0.64zM513.28 640c-35.2 0-64 14.080-64 32s28.8 32 64 32 64-14.080 64-32-28.8-32-64-32z" />
<glyph unicode="&#xe96f;" glyph-name="mute" d="M512 844.16v-664.32c0-42.88-51.84-64-81.92-33.92l-238.080 238.080h-128c-35.2 0-64 28.8-64 64v128c0 35.2 28.8 64 64 64h128l238.080 238.080c30.080 30.080 81.92 8.96 81.92-33.92zM993.92 638.080l-67.84 67.84-126.080-126.080-126.080 126.080-67.84-67.84 126.080-126.080-126.080-126.080 67.84-67.84 126.080 126.080 126.080-126.080 67.84 67.84-126.080 126.080 126.080 126.080z" />
<glyph unicode="&#xe970;" glyph-name="no-newline" d="M1024 704v-192c0-35.2-28.8-64-64-64h-192v-128l-192 192 192 192v-128h128v128h128zM512 512c0-140.8-115.2-256-256-256s-256 115.2-256 256 115.2 256 256 256 256-115.2 256-256zM96 405.76l266.24 266.24c-30.72 19.84-67.2 32-106.24 32-106.24 0-192-85.76-192-192 0-39.040 12.16-74.88 32-106.24zM448 512c0 39.040-12.16 74.88-32 106.24l-266.24-266.24c30.72-19.84 67.2-32 106.24-32 106.24 0 192 85.76 192 192z" />
<glyph unicode="&#xe971;" glyph-name="note" horiz-adv-x="896" d="M192 384h256v64h-256v-64zM192 512h384v64h-384v-64zM192 640h512v64h-512v-64zM832 256h-768v576h768v-576zM64 896c-35.2 0-64-28.8-64-64v-576c0-35.2 28.8-64 64-64h768c35.2 0 64 28.8 64 64v576c0 35.2-28.8 64-64 64h-768z" />
<glyph unicode="&#xe972;" glyph-name="octoface" d="M940.8 682.24c8.32 20.48 35.2 101.76-8.32 211.84 0 0-67.2 21.12-220.16-83.2-64 17.92-132.48 20.48-200.32 20.48s-136.32-2.56-200.32-20.48c-152.96 104.96-220.16 83.2-220.16 83.2-43.52-110.080-16.64-191.36-8.32-211.84-51.84-55.68-83.2-127.36-83.2-214.4 0-329.6 213.12-403.84 510.72-403.84s513.28 74.24 513.28 403.84c0 87.040-31.36 158.72-83.2 214.4zM512 126.72c-211.2 0-382.72 9.6-382.72 214.4 0 48.64 24.32 94.72 65.28 132.48 68.48 62.72 185.6 29.44 317.44 29.44 132.48 0 248.32 33.28 317.44-29.44 41.6-37.76 65.28-83.2 65.28-132.48 0-204.16-171.52-214.4-382.72-214.4zM351.36 447.36c-42.24 0-76.8-51.2-76.8-113.92s34.56-114.56 76.8-114.56c42.24 0 76.8 51.2 76.8 114.56s-34.56 113.92-76.8 113.92zM672.64 447.36c-42.24 0-76.8-50.56-76.8-113.92s34.56-114.56 76.8-114.56c42.24 0 76.8 51.2 76.8 114.56s-33.92 113.92-76.8 113.92z" />
<glyph unicode="&#xe973;" glyph-name="organization" d="M1024 192.064c0-28.096-28.8-64-64-64h-448.32c-34.496 0-63.616 28.608-63.68 63.936h-384c-34.56 0-64 35.904-64 64 0 168.576 192 256 192 256s14.656 26.176 0 64c-53.824 39.744-67.712 37.76-64 192 3.712 154.816 87.488 192 160 192s156.288-37.12 160-192c3.712-154.24-10.176-152.256-64-192-14.656-37.76 0-64 0-64s99.136-45.504 154.88-133.632c49.664 46.016 101.12 69.696 101.12 69.696s14.656 26.176 0 64c-53.824 39.68-67.712 37.76-64 192 3.712 154.816 87.488 192 160 192s155.968-37.184 159.68-192c3.776-154.24-10.112-152.32-64-192-14.656-37.76 0-64 0-64s192.32-87.424 192.32-256z" />
<glyph unicode="&#xe974;" glyph-name="package" d="M64 750.72v-478.080c0-28.8 19.2-53.76 48-62.080l416-110.72c10.24-3.2 21.76-3.2 32 0l416 110.72c28.8 8.32 48 33.28 48 62.080v478.080c0 28.8-19.2 53.76-48 62.080l-416 111.36c-4.811 0.916-10.344 1.44-16 1.44s-11.189-0.524-16.554-1.526l-415.446-111.274c-28.8-8.32-48-33.28-48-62.080zM512 168.96l-384 101.76v433.28l384-103.040v-432zM128 768l160 42.88 416-110.72-160-42.88-416 110.72zM960 270.72l-384-101.76v432l128 35.2v-156.16l128 33.92v156.16l128 33.92v-433.28zM832 734.080l-416 110.72 128 33.92 416-110.72-128-33.92z" />
<glyph unicode="&#xe975;" glyph-name="paintcan" horiz-adv-x="768" d="M384 1024c-211.84 0-384-172.16-384-384v-64c0-35.2 28.8-64 64-64v-320c0-70.4 143.36-128 320-128s320 57.6 320 128v320c35.2 0 64 28.8 64 64v64c0 211.84-172.16 384-384 384zM576 384v-32c0-17.92-14.080-32-32-32s-32 14.080-32 32v32c0 17.92-14.080 32-32 32s-32-14.080-32-32v-160c0-17.92-14.080-32-32-32s-32 14.080-32 32v128c0 17.92-14.080 32-32 32s-32-14.080-32-32v-32c0-35.2-28.8-64-64-64s-64 28.8-64 64v64c-35.2 0-64 28.8-64 64v115.2c58.24-31.36 151.040-51.2 256-51.2s197.76 19.84 256 51.2v-115.2c0-35.2-28.8-64-64-64zM384 576c-107.52 0-199.68 26.24-237.44 64 37.76 37.76 129.92 64 237.44 64s199.68-26.24 237.44-64c-37.76-37.76-129.92-64-237.44-64zM384 768c-176.64 0-320-56.96-320-128 0 176.64 143.36 320 320 320s320-143.36 320-320c0 70.4-143.36 128-320 128z" />
<glyph unicode="&#xe976;" glyph-name="pencil" horiz-adv-x="896" d="M0 256v-192h192l512 512-192 192-512-512zM192 128h-128v128h64v-64h64v-64zM851.2 723.2l-83.2-83.2-192 192 83.2 83.2c11.54 11.563 27.495 18.716 45.12 18.716s33.58-7.153 45.119-18.715l101.761-101.761c24.96-24.96 24.96-65.28 0-90.24z" />
<glyph unicode="&#xe977;" glyph-name="person" horiz-adv-x="768" d="M768 127.872c0-35.276-28.596-63.872-63.872-63.872h-640.064c-0.019 0-0.042 0-0.064 0-35.346 0-64 28.654-64 64 0 0.023 0 0.045 0 0.068v63.933c0 168.512 256 256 256 256s14.656 26.176 0 64c-53.824 39.68-60.416 101.76-64 256 11.072 154.432 119.488 192 192 192s180.928-37.504 192-192c-3.584-154.24-10.176-216.32-64-256-14.656-37.76 0-64 0-64s256-87.488 256-256v-64.128z" />
<glyph unicode="&#xe978;" glyph-name="pin" d="M640 947.2v-51.2l32-64-288-192h-243.2c-28.16 0-42.88-33.92-21.76-55.040l200.96-200.96-256-320 320 256 200.96-200.96c5.829-6.043 13.998-9.796 23.043-9.796 17.517 0 31.747 14.075 31.997 31.533v243.224l192 288 64-32h51.2c28.16 0 42.88 33.92 21.76 55.040l-273.92 273.92c-5.829 6.043-13.998 9.796-23.043 9.796-17.517 0-31.747-14.075-31.997-31.533z" />
<glyph unicode="&#xe979;" glyph-name="plug" horiz-adv-x="896" d="M896 640v64h-256v128h-128v-64h-128c-65.92 0-113.28-51.84-128-128l-64-64c-106.24 0-192-85.76-192-192v-128h64v128c0 71.040 56.96 128 128 128l64-64c16-74.24 62.72-128 128-128h128v-64h128v128h256v64h-256v192h256z" />
<glyph unicode="&#xe97a;" glyph-name="plus-small" horiz-adv-x="448" d="M256 576v192h-64v-192h-192v-64h192v-192h64v192h192v64h-192z" />
<glyph unicode="&#xe97b;" glyph-name="plus" horiz-adv-x="768" d="M768 448h-320v-320h-128v320h-320v128h320v320h128v-320h320z" />
<glyph unicode="&#xe97c;" glyph-name="primitive-dot" horiz-adv-x="512" d="M0 512c0 140.8 115.2 256 256 256s256-115.2 256-256-115.2-256-256-256-256 115.2-256 256z" />
<glyph unicode="&#xe97d;" glyph-name="primitive-square" horiz-adv-x="512" d="M512 256h-512v512h512z" />
<glyph unicode="&#xe97e;" glyph-name="project" horiz-adv-x="960" d="M640 256v640h192v-640h-192zM384 384v512h192v-512h-192zM128 128v768h192v-768h-192zM64 64v896h832v-896h-832zM896 1024h-832c-35.346 0-64-28.654-64-64v-896c0-35.346 28.654-64 64-64h832c35.346 0 64 28.654 64 64v896c0 35.346-28.654 64-64 64z" />
<glyph unicode="&#xe97f;" glyph-name="pulse" horiz-adv-x="896" d="M736 512l-172.8 166.4-140.8-198.4-70.4 441.6-199.68-409.6h-152.32v-128h230.4l57.6 115.2 57.6-345.6 230.4 326.4 102.4-96h217.6v128z" />
<glyph unicode="&#xe980;" glyph-name="question" horiz-adv-x="896" d="M384 384h128v-128h-128v128zM640 608c0-136.96-128-160-128-160h-128c0 35.2 28.8 64 64 64h32c17.92 0 32 14.080 32 32v64c0 17.92-14.080 32-32 32h-64c-17.92 0-32-14.080-32-32v-32h-128c0 96 96 192 192 192s192-64 192-160zM448 876.8c200.96 0 364.8-163.84 364.8-364.8s-163.84-364.8-364.8-364.8c-201.327 0.364-364.437 163.473-364.8 364.765 0 200.995 163.84 364.835 364.8 364.835zM448 960c-247.040 0-448-200.96-448-448s200.96-448 448-448 448 200.96 448 448-200.96 448-448 448z" />
<glyph unicode="&#xe981;" glyph-name="quote" horiz-adv-x="896" d="M394.24 800c-155.52-99.84-231.040-202.88-231.040-375.040 10.24 3.2 19.2 3.2 28.16 3.2 81.28 0 160-55.040 160-154.24 0-103.040-65.92-167.040-160-167.040-121.6 0-191.36 97.28-191.36 272 0 243.2 112 417.92 321.28 538.88l72.96-117.76zM842.24 800c-155.52-99.84-231.040-202.88-231.040-375.040 10.24 3.2 19.2 3.2 28.16 3.2 81.28 0 160-55.040 160-154.24 0-103.040-65.92-167.040-160-167.040-120.96 0-190.72 97.28-190.72 272 0 243.2 112 417.92 321.28 538.88l72.96-117.76h-0.64z" />
<glyph unicode="&#xe982;" glyph-name="radio-tower" d="M306.56 632.96c16 16 16 42.88 0 58.88-20.48 21.12-30.72 48.64-30.72 76.16s10.24 55.040 30.72 76.16c16 16.64 16 42.88 0 58.88-7.159 7.499-17.233 12.162-28.397 12.162-0.142 0-0.283-0.001-0.425-0.002-10.218 0-21.098-3.84-28.778-12.16-36.48-37.12-54.4-86.4-54.4-135.040s18.56-97.92 54.4-135.040c16-16 42.24-16 57.6 0zM149.12 990.72c-7.538 7.527-17.945 12.182-29.44 12.182s-21.902-4.655-29.44-12.183c-59.52-61.44-89.6-142.080-89.6-222.080 0-80.64 30.080-161.28 89.6-222.72 16-16.64 42.24-16.64 58.24 0s16 43.52 0 60.16c-43.52 44.8-65.28 103.68-65.28 162.56s21.76 117.76 65.28 162.56c7.773 7.665 12.587 18.311 12.587 30.082 0 11.452-4.557 21.839-11.957 29.447zM513.28 664.32c57.261 0 103.68 46.419 103.68 103.68s-46.419 103.68-103.68 103.68c-57.261 0-103.68-46.419-103.68-103.68-0.64-56.96 46.080-103.68 103.68-103.68zM933.76 990.080c-7.336 7.701-17.669 12.49-29.12 12.49s-21.784-4.789-29.105-12.473c-16.015-16.656-16.015-43.536-0.015-60.176 43.52-44.8 65.28-103.68 65.28-162.56s-21.76-117.12-65.28-162.56c-16-16.64-16-43.52 0-60.16 7.538-7.527 17.945-12.182 29.44-12.182s21.902 4.655 29.44 12.183c59.52 61.44 89.6 142.080 89.6 222.72-0.348 86.557-34.681 165.029-90.337 222.821zM513.28 581.12c-26.24 0-53.12 6.4-76.8 19.2l-201.6-535.68h95.36l55.040 64h256l53.76-64h95.36l-200.96 535.68c-24.32-12.8-49.92-19.2-76.16-19.2zM512.64 550.4l64.64-230.4h-128l63.36 230.4zM385.28 192.64l64 64h128l64-64h-256zM717.44 903.040c-16-16-16-42.88 0-58.88 20.48-21.12 30.72-48.64 30.72-76.16s-10.24-55.040-30.72-76.16c-16-16.64-16-42.88 0-58.88 7.324-7.471 17.521-12.102 28.8-12.102s21.476 4.631 28.794 12.095c36.486 37.127 54.406 86.407 54.406 135.047s-17.92 97.92-54.4 135.040c-7.353 7.408-17.541 11.993-28.8 11.993s-21.447-4.586-28.798-11.991z" />
<glyph unicode="&#xe983;" glyph-name="reply" horiz-adv-x="896" d="M384 800c250.88-28.16 512-200 512-640-147.968 323.968-304 384-512 384v-224l-352 352 352 352v-224z" />
<glyph unicode="&#xe984;" glyph-name="repo-clone" d="M960 1024h-384v-448c0-35.2 28.8-64 64-64h64v-64h64v64h192c35.2 0 64 28.8 64 64v384c0 35.2-28.8 64-64 64zM704 576h-64v64h64v-64zM960 576h-192v64h192v-64zM960 704h-256v256h256v-256zM256 704h-64v64h64v-64zM256 832h-64v64h64v-64zM128 960h384v64h-448c-35.2 0-64-28.8-64-64v-768c0-35.2 28.8-64 64-64h128v-128l96 96 96-96v128h320c35.2 0 64 28.8 64 64v192h-640v576zM704 320v-128h-320v64h-192v-64h-128v128h640zM192 512h64v-64h-64v64zM256 576h-64v64h64v-64z" />
<glyph unicode="&#xe985;" glyph-name="repo-force-push" horiz-adv-x="768" d="M640 448h-128v-448h-128v448h-128l144 192h-144l192 256 192-256h-144l144-192zM704 1024h-640c-35.2 0-64-28.8-64-64v-768c0-35.2 28.8-64 64-64h256v64h-256v128h256v64h-192v576h576v-576h-128v-64h128v-128h-128v-64h128c35.2 0 64 28.8 64 64v768c0 35.2-28.8 64-64 64z" />
<glyph unicode="&#xe986;" glyph-name="repo-forked" horiz-adv-x="640" d="M512 960c-0.1 0-0.219 0-0.337 0-70.445 0-127.552-57.107-127.552-127.552 0-47.009 25.43-88.079 63.285-110.202l0.604-82.246-128-128-128 128v81.92c38.459 22.45 63.889 63.519 63.889 110.528 0 70.445-57.107 127.552-127.552 127.552-0.119 0-0.237 0-0.355 0-0.082 0-0.2 0-0.319 0-70.445 0-127.552-57.107-127.552-127.552 0-47.009 25.43-88.079 63.285-110.202l0.604-114.246 192-192v-113.92c-38.459-22.45-63.889-63.519-63.889-110.528 0-70.445 57.107-127.552 127.552-127.552 0.119 0 0.237 0 0.355 0 0.082 0 0.2 0 0.319 0 70.445 0 127.552 57.107 127.552 127.552 0 47.009-25.43 88.079-63.285 110.202l-0.604 114.246 192 192v113.92c38.459 22.45 63.889 63.519 63.889 110.528 0 70.445-57.107 127.552-127.552 127.552-0.119 0-0.237 0-0.355 0zM128 755.2c-42.24 0-76.8 35.2-76.8 76.8s35.2 76.8 76.8 76.8c41.6 0 76.8-35.2 76.8-76.8s-35.2-76.8-76.8-76.8zM320 115.2c-42.24 0-76.8 35.2-76.8 76.8s35.2 76.8 76.8 76.8c41.6 0 76.8-35.2 76.8-76.8s-35.2-76.8-76.8-76.8zM512 755.2c-42.24 0-76.8 35.2-76.8 76.8s35.2 76.8 76.8 76.8c41.6 0 76.8-35.2 76.8-76.8s-35.2-76.8-76.8-76.8z" />
<glyph unicode="&#xe987;" glyph-name="repo-pull" d="M832 512v128h-384v128h384v128l192-192-192-192zM256 896h-64v-64h64v64zM704 576h64v-384c0-35.2-28.8-64-64-64h-320v-128l-96 96-96-96v128h-128c-35.2 0-64 28.8-64 64v768c0 35.2 28.8 64 64 64h640c35.2 0 64-28.8 64-64v-128h-64v128h-576v-576h576v192zM704 320h-640v-128h128v64h192v-64h320v128zM256 640h-64v-64h64v64zM256 768h-64v-64h64v64zM192 448h64v64h-64v-64z" />
<glyph unicode="&#xe988;" glyph-name="repo-push" horiz-adv-x="768" d="M256 832h-64v64h64v-64zM192 704h64v64h-64v-64zM448 704l-192-256h128v-448h128v448h128l-192 256zM704 1024h-640c-35.2 0-64-28.8-64-64v-768c0-35.2 28.8-64 64-64h256v64h-256v128h256v64h-192v576h577.28l-1.28-576h-128v-64h128v-128h-128v-64h128c35.2 0 64 28.8 64 64v768c0 35.2-28.8 64-64 64z" />
<glyph unicode="&#xe989;" glyph-name="repo" horiz-adv-x="768" d="M256 448h-64v64h64v-64zM256 640h-64v-64h64v64zM256 768h-64v-64h64v64zM256 896h-64v-64h64v64zM768 960v-768c0-35.2-28.8-64-64-64h-320v-128l-96 96-96-96v128h-128c-35.2 0-64 28.8-64 64v768c0 35.2 28.8 64 64 64h640c35.2 0 64-28.8 64-64zM704 320h-640v-128h128v64h192v-64h320v128zM704 960h-576v-576h576v576z" />
<glyph unicode="&#xe98a;" glyph-name="rocket" d="M778.88 778.88c-17.28 17.28-30.080 35.2-40.32 56.32-10.24 19.84-17.28 42.24-21.76 65.28-37.12-21.12-74.24-44.8-110.72-72.32-37.12-28.16-72.96-60.16-108.16-94.72-44.8-44.8-85.12-115.84-113.92-156.8h-192l-192-192.64h192l128 128c-21.76-49.28-65.28-190.72-64-192l64-64c1.28-1.28 142.72 40.96 192 64l-128-128v-192l192 192v192c40.96 28.8 112 69.76 156.8 113.92 35.2 35.2 67.2 72.32 94.080 108.8 28.16 37.12 51.84 74.24 72.96 110.080-23.040 5.12-44.8 12.16-65.92 21.76-21.167 10.999-39.311 24.445-55.024 40.304zM1024 1024s-5.76-24.32-19.2-67.84c-12.8-44.8-35.2-101.12-67.84-170.24-44.8 5.12-81.28 21.12-106.24 46.080s-40.32 60.16-44.8 104.96c69.12 33.28 124.8 56.32 168.96 69.12 44.8 12.8 69.12 17.92 69.12 17.92z" />
<glyph unicode="&#xe98b;" glyph-name="rss" horiz-adv-x="640" d="M128 192h-128v128c71.040 0 128-56.96 128-128zM0 832v-64c318.116 0 576-257.884 576-576h64c0 353.28-286.72 640-640 640zM0 576v-64c176 0 320-144 320-320h64c0 211.84-172.16 384-384 384z" />
<glyph unicode="&#xe98c;" glyph-name="ruby" d="M832 640l-320-320v448h192l128-128zM1024 640l-512-512-512 512 256 256h512l256-256zM512 224l416 416-192 192h-448l-192-192 416-416z" />
<glyph unicode="&#xe98d;" glyph-name="screen-full" horiz-adv-x="896" d="M832 384h64v-192c0-35.008-28.992-64-64-64h-192v64h192v192zM64 384h-64v-192c0-35.008 28.992-64 64-64h192v64h-192v192zM64 832h192v64h-192c-35.008 0-64-28.992-64-64v-192h64v192zM128 768h640v-512h-640v512zM256 384h384v256h-384v-256zM640 896v-64h192v-192h64v192c0 35.008-28.992 64-64 64h-192z" />
<glyph unicode="&#xe98e;" glyph-name="screen-normal" horiz-adv-x="896" d="M128 768h-128v64h128v128h64v-128c0-35.008-28.992-64-64-64zM128 256h-128v-64h128v-128h64v128c0 35.008-28.992 64-64 64zM704 384c0-35.008-28.992-64-64-64h-384c-35.008 0-64 28.992-64 64v256c0 35.008 28.992 64 64 64h384c35.008 0 64-28.992 64-64v-256zM576 576h-256v-128h256v128zM704 192v-128h64v128h128v64h-128c-35.008 0-64-28.992-64-64zM768 832v128h-64v-128c0-35.008 28.992-64 64-64h128v64h-128z" />
<glyph unicode="&#xe98f;" glyph-name="search" d="M1004.8 172.8l-243.84 245.12c44.413 61.348 71.041 138.104 71.041 221.080 0 0.352 0 0.703-0.001 1.055 0 211.785-172.16 383.945-384 383.945s-384-172.16-384-384 172.16-384 384-384c83.2 0 158.72 26.24 222.080 71.040l245.12-243.84c12.16-12.8 28.8-19.2 44.8-19.2s33.28 5.76 44.8 19.2c11.563 11.54 18.716 27.495 18.716 45.12s-7.153 33.58-18.715 45.119l-0.001-0.639zM448 339.2c-165.76 0-300.8 135.040-300.8 300.8s135.040 300.8 300.8 300.8c165.76 0 300.8-135.040 300.8-300.8s-135.040-300.8-300.8-300.8z" />
<glyph unicode="&#xe990;" glyph-name="server" horiz-adv-x="768" d="M704 640h-640c-35.2 0-64-28.8-64-64v-128c0-35.2 28.8-64 64-64h640c35.2 0 64 28.8 64 64v128c0 35.2-28.8 64-64 64zM128 448h-64v128h64v-128zM256 448h-64v128h64v-128zM384 448h-64v128h64v-128zM512 448h-64v128h64v-128zM704 960h-640c-35.2 0-64-28.8-64-64v-128c0-35.2 28.8-64 64-64h640c35.2 0 64 28.8 64 64v128c0 35.2-28.8 64-64 64zM128 768h-64v128h64v-128zM256 768h-64v128h64v-128zM384 768h-64v128h64v-128zM512 768h-64v128h64v-128zM704 832h-64v64h64v-64zM704 320h-640c-35.2 0-64-28.8-64-64v-128c0-35.2 28.8-64 64-64h640c35.2 0 64 28.8 64 64v128c0 35.2-28.8 64-64 64zM128 128h-64v128h64v-128zM256 128h-64v128h64v-128zM384 128h-64v128h64v-128zM512 128h-64v128h64v-128z" />
<glyph unicode="&#xe991;" glyph-name="settings" d="M256 576h-64v320h64v-320zM192 128h64v192h-64v-192zM512 128h64v384h-64v-384zM832 128h64v128h-64v-128zM896 896h-64v-384h64v384zM576 896h-64v-128h64v128zM320 512h-192c-35.2 0-64-28.8-64-64s28.8-64 64-64h192c35.2 0 64 28.8 64 64s-28.8 64-64 64zM640 704h-192c-35.2 0-64-28.8-64-64s28.8-64 64-64h192c35.2 0 64 28.8 64 64s-28.8 64-64 64zM960 448h-192c-35.2 0-64-28.8-64-64s28.8-64 64-64h192c35.2 0 64 28.8 64 64s-28.8 64-64 64z" />
<glyph unicode="&#xe992;" glyph-name="shield" horiz-adv-x="896" d="M448 1024l-448-128v-385.28c0-298.88 339.84-510.72 448-510.72s448 211.84 448 510.72v385.28l-448 128zM320 320l72.96 179.2c0.454 2.155 0.714 4.632 0.714 7.169 0 12.782-6.597 24.024-16.573 30.505-35.981 23.126-57.101 60.886-57.101 103.126 0 69.76 56.96 128 126.72 128 69.12 0 129.28-58.24 129.28-128 0-42.24-21.12-80-56.96-103.040-12.16-8.32-19.2-23.040-16-37.76l72.96-179.2h-256z" />
<glyph unicode="&#xe993;" glyph-name="sign-in" horiz-adv-x="896" d="M448 592v-336h256v256h64v-256c0-35.2-28.8-64-64-64h-256v-192l-348.8 174.080c-21.12 10.88-35.2 33.28-35.2 58.24v727.68c0 35.2 28.8 64 64 64h576c35.2 0 64-28.8 64-64v-192h-64v192h-512l256-128v-144l192 144v-128h256v-128h-256v-128l-192 144z" />
<glyph unicode="&#xe994;" glyph-name="sign-out" d="M768 448v128h-256v128h256v128l256-192-256-192zM640 256h-256v576l-256 128h512v-192h64v192c0 35.2-28.8 64-64 64h-576c-35.2 0-64-28.8-64-64v-728.32c0-24.96 14.080-46.72 35.2-58.24l348.8-174.080v192.64h256c35.2 0 64 28.8 64 64v256h-64v-256z" />
<glyph unicode="&#xe995;" glyph-name="smiley" d="M512 1024c-282.88 0-512-229.12-512-512s229.12-512 512-512 512 229.12 512 512-229.12 512-512 512zM819.84 204.16c-38.76-38.692-84.873-70.031-136.062-91.738-55.938-24.102-112.898-34.982-171.778-34.982s-115.84 10.88-168.96 33.92c-51.84 21.76-99.2 53.12-138.88 92.8-38.619 38.803-69.946 84.904-91.728 136.046-22.522 51.714-35.005 108.688-35.005 168.578 0 1.131 0.004 2.26 0.013 3.389-0.001 58.707 10.879 115.667 33.919 168.787 21.76 51.84 53.12 99.2 92.8 138.88s87.040 71.040 138.88 92.8c48.88 21.449 105.854 33.932 165.744 33.932 1.131 0 2.26-0.004 3.389-0.013 58.707 0.001 115.667-10.879 168.787-33.919 51.84-21.76 99.2-53.12 138.88-92.8s71.040-87.040 92.8-138.88c23.040-53.12 33.92-110.080 33.92-168.96s-10.88-115.84-33.92-168.96c-21.76-51.84-53.12-99.2-92.8-138.88zM256 588.8v37.76c0 42.24 33.92 76.16 76.8 76.16h37.76c42.24 0 76.16-33.92 76.16-76.16v-37.76c0-42.88-33.92-76.8-76.16-76.8h-37.76c-42.88 0-76.8 33.92-76.8 76.8zM576 588.8v37.76c0 42.24 33.92 76.16 76.8 76.16h37.76c42.24 0 76.16-33.92 76.16-76.16v-37.76c0-42.88-33.92-76.8-76.16-76.8h-37.76c-42.88 0-76.8 33.92-76.8 76.8zM832 384c-46.080-120.32-186.24-192-320-192s-273.92 72.32-320 192c-8.96 24.96 14.72 64 42.24 64h549.76c26.24 0 56.96-39.040 48-64z" />
<glyph unicode="&#xe996;" glyph-name="squirrel" d="M768 960c-141.44 0-256-83.84-256-186.88 0-124.16 32-193.92 0-389.12 0 288-177.28 405.76-256 405.76 3.2 32-30.72 42.24-30.72 42.24s-14.080-7.040-19.2-21.76c-17.28 19.84-35.84 17.28-35.84 17.28l-8.32-37.12s-117.12-40.96-118.4-206.080c12.8-21.12 97.92-38.4 158.080-27.52 56.96-3.2 42.88-50.56 30.080-63.36-53.76-53.76-103.68 18.56-167.68 18.56s-64-64 0-64 64-64 192-64c-197.76-76.8 0-256 0-256h-64c-64 0-64-64-64-64h384c192 0 320 64 320 222.080 0 54.4-27.52 114.56-64 161.92-71.040 93.44 14.72 171.52 64 128s192-64 192 128c0 141.44-114.56 256-256 256zM160 640c-17.92 0-32 14.080-32 32s14.080 32 32 32 32-14.080 32-32-14.080-32-32-32z" />
<glyph unicode="&#xe997;" glyph-name="star" horiz-adv-x="896" d="M896 640l-313.6 40.96-134.4 279.040-134.4-279.040-313.6-40.96 230.4-208.64-59.52-303.36 277.12 149.12 277.12-149.12-59.52 303.36z" />
<glyph unicode="&#xe998;" glyph-name="stop" horiz-adv-x="896" d="M640 960h-384l-256-256v-384l256-256h384l256 256v384l-256 256zM832 352l-224-224h-320l-224 224v320l224 224h320l224-224v-320zM384 768h128v-320h-128v320zM384 384h128v-128h-128v128z" />
<glyph unicode="&#xe999;" glyph-name="sync" horiz-adv-x="768" d="M655.36 550.4c1.977-12.174 3.106-26.206 3.106-40.502 0-74.389-30.582-141.635-79.858-189.851-50.174-49.196-118.906-79.53-194.722-79.53-56.358 0-108.801 16.762-152.616 45.572l75.93 72.312-275.2 38.4 38.4-268.8 83.84 80.64c151.040-111.36 364.8-100.48 501.76 34.56 69.032 68.213 111.786 162.887 111.786 267.547 0 6.294-0.155 12.551-0.46 18.769l-111.966 20.884zM189.44 704c50.127 49.149 118.858 79.483 194.674 79.483 56.358 0 108.801-16.762 152.616-45.572l-75.93-72.312 275.2-38.4-38.4 268.8-83.84-80.64c-151.040 111.36-364.8 100.48-502.4-34.56-79.36-78.72-115.2-182.4-110.72-285.44l112-22.4c-1.977 12.204-3.107 26.272-3.107 40.604 0 74.558 30.574 141.975 79.867 190.398z" />
<glyph unicode="&#xe99a;" glyph-name="tag" horiz-adv-x="896" d="M494.72 913.28c-30.080 30.080-71.040 46.72-113.28 46.72h-157.44c-87.68 0-160-72.32-160-160v-158.080c0-42.24 17.28-83.2 46.72-113.28l387.84-387.84c24.96-24.96 65.28-24.96 90.24 0l293.76 293.76c11.563 11.54 18.716 27.495 18.716 45.12s-7.153 33.58-18.715 45.119l-387.841 388.481zM152.32 570.24c-19.84 19.2-30.080 44.8-30.080 72.32v157.44c0 56.32 46.080 101.76 101.76 101.76h158.080c26.88 0 53.12-10.24 72.32-30.080l392.96-392.32-302.72-302.72-392.32 393.6zM192.64 832h128v-128h-128.64v128h0.64z" />
<glyph unicode="&#xe99b;" glyph-name="tasklist" d="M986.24 448h-500.48c-37.76 0-37.76 26.24-37.76 64s0 64 37.76 64h499.84c37.76 0 37.76-26.24 37.76-64s0-64-37.76-64h0.64zM613.76 768c-37.76 0-37.76 26.24-37.76 64s0 64 37.76 64h371.84c37.76 0 37.76-26.24 37.76-64s0-64-37.76-64h-371.84zM0 773.76l90.24 83.2 101.76-101.76 261.76 268.8 90.24-90.24-352-352-192 192zM485.76 256h499.84c37.76 0 37.76-26.24 37.76-64s0-64-37.76-64h-499.84c-37.76 0-37.76 26.24-37.76 64s0 64 37.76 64z" />
<glyph unicode="&#xe99c;" glyph-name="telescope" horiz-adv-x="896" d="M512 448l192-384h-64l-128 256v-320h-64v384l-128-320h-64l128 320 128 64zM448 1024h-64v-64h64v64zM320 832h-64v-64h64v64zM128 960h-64v-64h64v64zM40.32 448c-8.602-6.099-14.149-16.018-14.149-27.231 0-5.728 1.447-11.118 3.996-15.824l35.113-58.704c8.32-14.72 26.24-19.84 40.96-12.8l88.96 42.24-74.24 128-81.28-55.040 0.64-0.64zM545.28 792.96l-371.2-252.8 78.72-136.96 405.12 193.92-113.28 195.84h0.64zM815.36 711.040l-94.080 161.28c-5.763 9.764-16.23 16.211-28.204 16.211-6.651 0-12.838-1.99-17.998-5.406l-76.679-53.045 117.76-204.8 85.12 40.96c17.28 8.32 23.040 28.16 14.080 44.8z" />
<glyph unicode="&#xe99d;" glyph-name="terminal" horiz-adv-x="896" d="M448 384h256v-64h-256v64zM256 320l192 192-192 192-48-48 144-144-144-144 48-48zM896 832v-640c0-35.2-28.8-64-64-64h-768c-35.2 0-64 28.8-64 64v640c0 35.2 28.8 64 64 64h768c35.2 0 64-28.8 64-64zM832 832h-768v-640h768v640z" />
<glyph unicode="&#xe99e;" glyph-name="text-size" horiz-adv-x="1152" d="M871.68 442.88l-97.28 346.88h-3.84l-96-346.88h197.12zM364.8 375.68s-65.28 231.040-74.88 263.040h-5.12l-72.32-263.040h152.32zM1107.84 128h-144l-60.8 208h-260.48l-60.8-208h-144l-44.16 149.12h-209.92l-44.8-149.12h-138.88l211.2 613.76h160l138.88-405.76 184.96 560h161.28l252.16-768h-0.64z" />
<glyph unicode="&#xe99f;" glyph-name="three-bars" horiz-adv-x="768" d="M730.24 448h-692.48c-37.76 0-37.76 26.24-37.76 64s0 64 37.76 64h691.84c37.76 0 37.76-26.24 37.76-64s0-64-37.76-64h0.64zM730.24 704h-692.48c-37.76 0-37.76 26.24-37.76 64s0 64 37.76 64h691.84c37.76 0 37.76-26.24 37.76-64s0-64-37.76-64h0.64zM37.76 320h691.84c37.76 0 37.76-26.24 37.76-64s0-64-37.76-64h-691.84c-37.76 0-37.76 26.24-37.76 64s0 64 37.76 64z" />
<glyph unicode="&#xe9a0;" glyph-name="thumbsdown" d="M1022.72 522.88l-62.080 380.8c-10.88 88.32-120.32 120.32-192.64 120.32h-403.84c-12.8 0-24.32-3.2-33.92-8.96l-92.16-55.040h-110.080c-67.84 0-128-60.16-128-128v-256c0-67.84 60.16-129.28 128-128h128c58.24 0 88.96-28.8 152.96-99.2 58.24-64 56.32-115.2 40.32-209.28-5.12-32 3.84-64 26.88-90.88 24.96-30.080 62.72-49.28 99.84-49.28 117.12 0 192 238.080 192 321.28l-1.28 62.72h130.56c74.24 0 124.8 51.2 126.72 126.080 0 3.84 1.28 8.32-1.28 12.8v0.64zM896.64 446.72h-127.36c-44.8 0-65.92-17.92-65.92-62.080l1.92-65.92c0-81.28-74.88-256-128-256-32 0-69.12 32-64 64 16 101.12 21.76 177.92-56.96 264.96-65.28 72.32-113.28 120.32-200.32 120.32v384l106.88 64h405.12c46.72 0 124.8-19.84 128-64l1.28-1.28 64-384c-1.92-40.96-24.32-64-64-64h-0.64z" />
<glyph unicode="&#xe9a1;" glyph-name="thumbsup" d="M896 128c-3.2-44.16-81.28-64-128-64h-405.12l-106.88 64v384c87.040 0 135.040 48 200.32 120.32 78.72 87.040 72.96 163.84 56.32 264.32-5.12 32 32 64 64 64 53.12 0 128-174.72 128-256l-1.28-65.92c0-44.16 21.12-62.080 65.28-62.080h128c40.32 0 62.72-23.040 64-64l-64-384-0.64-0.64zM896 640h-129.28l1.28 62.72c0 83.2-74.88 321.28-192 321.28-37.12 0-74.88-19.2-99.84-49.28-23.040-26.24-32-58.24-26.88-90.24 16-94.72 17.92-145.92-40.32-209.92-64-69.76-94.72-99.2-152.96-99.2h-128c-67.84 0.64-128-59.52-128-127.36v-256c0-67.84 60.16-128 128-128h110.080l92.16-55.040c10.24-5.76 21.12-8.96 33.28-8.96h405.12c72.32 0 181.76 32 192 120.32l62.72 380.8c1.28 5.12 1.28 8.96 1.28 12.8-1.92 74.88-53.76 126.080-128 126.080h-0.64z" />
<glyph unicode="&#xe9a2;" glyph-name="tools" d="M286.72 558.72c16.64-16.64 81.92-85.12 81.92-85.12l35.84 37.12-56.32 58.24 108.16 115.2s-48.64 47.36-27.52 28.8c20.48 76.16 1.92 160.64-55.68 220.16-57.6 58.88-138.88 78.080-211.84 58.24l123.52-128-32.64-125.44-120.96-33.28-123.52 128c-19.84-75.52-1.28-159.36 56.32-218.24 60.16-62.72 146.56-80.64 222.72-55.68zM698.88 434.56l-149.12-147.2 245.76-254.72c19.84-21.12 46.72-31.36 72.96-31.36s52.48 10.24 72.96 31.36c40.32 41.6 40.32 108.8 0 150.4l-242.56 251.52zM1024 862.080l-156.8 161.92-462.080-477.44 56.32-58.24-275.84-285.44-63.36-33.92-88.96-145.28 22.4-23.68 140.8 92.16 32.64 65.28 276.48 285.44 56.32-58.24 462.080 477.44z" />
<glyph unicode="&#xe9a3;" glyph-name="trashcan" horiz-adv-x="768" d="M704 896h-128c0 35.2-28.8 64-64 64h-192c-35.2 0-64-28.8-64-64h-128c-35.2 0-64-28.8-64-64v-64c0-35.2 28.8-64 64-64v-576c0-35.2 28.8-64 64-64h448c35.2 0 64 28.8 64 64v576c35.2 0 64 28.8 64 64v64c0 35.2-28.8 64-64 64zM640 128h-448v576h64v-512h64v512h64v-512h64v512h64v-512h64v512h64v-576zM704 768h-576v64h576v-64z" />
<glyph unicode="&#xe9a4;" glyph-name="triangle-down" horiz-adv-x="768" d="M0 704l384-384 384 384z" />
<glyph unicode="&#xe9a5;" glyph-name="triangle-left" horiz-adv-x="384" d="M384 896l-384-384 384-384z" />
<glyph unicode="&#xe9a6;" glyph-name="triangle-right" horiz-adv-x="384" d="M0 128l384 384-384 384z" />
<glyph unicode="&#xe9a7;" glyph-name="triangle-up" horiz-adv-x="768" d="M768 320l-384 384-384-384z" />
<glyph unicode="&#xe9a8;" glyph-name="unfold" horiz-adv-x="896" d="M736 544l160-160c0-35.2-28.8-64-64-64h-256v64h224l-128 128h-448l-128-128h224v-64h-256c-35.2 0-64 28.8-64 64l160 160-160 160c0 35.2 28.8 64 64 64h256v-64h-224l128-128h448l128 128h-224v64h256c35.2 0 64-28.8 64-64l-160-160zM384 640h128v192h128l-192 192-192-192h128v-192zM512 448h-128v-192h-128l192-192 192 192h-128v192z" />
<glyph unicode="&#xe9a9;" glyph-name="unmute" d="M768 510.72c0-69.76-28.8-133.76-74.88-181.12l-42.88 42.88c35.2 35.84 56.96 83.84 56.96 138.24s-21.76 103.040-56.96 138.24l42.88 42.88c46.263-46.22 74.88-110.095 74.88-180.654 0-0.164 0-0.327 0-0.491zM494.080 878.080l-238.080-238.080h-128c-35.2 0-64-28.8-64-64v-128c0-35.2 28.8-64 64-64h128l238.080-238.080c30.080-30.080 81.92-8.96 81.92 33.92v664.32c0 42.88-51.84 64-81.92 33.92zM874.24 872.96l-42.88-42.88c81.444-81.095 131.842-193.313 131.842-317.302 0-0.498-0.001-0.997-0.002-1.495 0-124.083-49.92-236.723-131.84-318.643l42.88-42.88c92.524 92.371 149.761 220.063 149.761 361.123 0 0.393 0 0.785-0.001 1.178 0 142.020-56.96 270.020-149.76 362.18v-1.28zM784 782.72l-44.16-42.88c58.522-58.493 94.72-139.316 94.72-228.594 0-0.185 0-0.37 0-0.554 0-88.931-35.84-170.211-94.72-227.811l44.16-42.88c69.198 69.162 112 164.727 112 270.289 0 0.151 0 0.303 0 0.454 0 105.576-42.88 202.216-112 271.976z" />
<glyph unicode="&#xe9aa;" glyph-name="unverified" d="M1002.88 572.16l-69.12 85.76c-10.88 14.080-17.92 30.72-19.84 49.28l-12.16 108.8c-5.228 44.75-40.37 79.892-84.667 85.077l-109.253 12.203c-19.2 1.92-35.84 10.24-49.92 21.12l-85.76 69.12c-35.2 28.16-85.12 28.16-120.32 0l-85.76-69.12c-14.080-10.88-30.72-17.92-49.28-19.84l-108.8-12.16c-44.8-5.12-80-40.32-85.12-85.12l-12.16-108.8c-1.92-19.2-10.24-35.84-21.12-49.92l-69.12-85.76c-28.16-35.2-28.16-85.12 0-120.32l69.12-85.76c10.88-14.080 17.92-30.72 19.84-49.28l12.16-108.8c5.12-44.8 40.32-80 85.12-85.12l108.8-12.16c19.2-1.92 35.84-10.24 49.92-21.12l85.76-69.12c35.2-28.16 85.12-28.16 120.32 0l85.76 69.12c14.080 10.88 30.72 17.92 49.28 19.84l108.8 12.16c44.8 5.12 80 40.32 85.12 85.12l12.16 108.8c1.92 19.2 10.24 35.84 21.12 49.92l69.12 85.76c28.16 35.2 28.16 85.12 0 120.32zM576 288c0-17.92-14.080-32-32-32h-64c-17.28 0-32 14.080-32 32v64c0 17.92 14.72 32 32 32h64c17.92 0 32-14.080 32-32v-64zM675.84 600.96c-3.84-10.88-10.88-21.12-19.2-30.080-8.32-10.24-8.96-12.16-21.12-24.32-10.24-10.88-19.84-19.2-33.28-28.8-7.040-5.76-12.8-12.16-17.92-17.28s-8.96-10.88-12.16-17.28c-3.2-6.4-5.12-12.16-7.040-19.2s-1.92-8.32-1.92-16h-106.88c0 14.080 0 19.84 1.92 30.72 1.92 12.16 5.12 23.040 8.96 33.28 3.84 8.96 8.96 17.92 16 26.88 7.040 8.32 14.72 16 26.24 24.32 17.28 12.16 23.040 19.2 30.72 33.28s12.8 24.32 12.8 37.76c0 17.28-3.84 28.8-12.8 37.12-8.32 8.32-19.84 12.16-37.12 12.16-5.76 0-12.16-1.28-19.2-3.2s-10.88-5.76-16-10.24c-5.12-4.48-8.96-7.040-12.8-12.8-3.613-4.459-5.801-10.202-5.801-16.455 0-0.515 0.015-1.027 0.044-1.535l-128.003 0.070c0 24.32 8.32 35.84 17.28 53.12 10.24 17.28 23.040 32 39.040 42.88s35.2 19.2 56.32 24.32c21.12 5.12 44.8 8.32 69.76 8.32 28.16 0 53.12-3.2 74.88-8.32 21.76-5.76 40.32-14.080 56.32-24.96 14.72-10.88 26.24-24.32 35.2-40.32 8.32-16 12.16-35.2 12.16-56.32 0-14.080 0-26.88-5.12-37.76l-1.28 0.64z" />
<glyph unicode="&#xe9ab;" glyph-name="verified" d="M1002.88 572.16l-69.12 85.76c-10.88 14.080-17.92 30.72-19.84 49.28l-12.16 108.8c-5.228 44.75-40.37 79.892-84.667 85.077l-109.253 12.203c-19.2 1.92-35.84 10.24-49.92 21.12l-85.76 69.12c-35.2 28.16-85.12 28.16-120.32 0l-85.76-69.12c-14.080-10.88-30.72-17.92-49.28-19.84l-108.8-12.16c-44.8-5.12-80-40.32-85.12-85.12l-12.16-108.8c-1.92-19.2-10.24-35.84-21.12-49.92l-69.12-85.76c-28.16-35.2-28.16-85.12 0-120.32l69.12-85.76c10.88-14.080 17.92-30.72 19.84-49.28l12.16-108.8c5.12-44.8 40.32-80 85.12-85.12l108.8-12.16c19.2-1.92 35.84-10.24 49.92-21.12l85.76-69.12c35.2-28.16 85.12-28.16 120.32 0l85.76 69.12c14.080 10.88 30.72 17.92 49.28 19.84l108.8 12.16c44.8 5.12 80 40.32 85.12 85.12l12.16 108.8c1.92 19.2 10.24 35.84 21.12 49.92l69.12 85.76c28.16 35.2 28.16 85.12 0 120.32zM416 256l-224 224 96 96 128-128 320 320 96-99.2-416-412.8z" />
<glyph unicode="&#xe9ac;" glyph-name="versions" horiz-adv-x="896" d="M832 832h-384c-35.2 0-64-28.8-64-64v-512c0-35.2 28.8-64 64-64h384c35.2 0 64 28.8 64 64v512c0 35.2-28.8 64-64 64zM768 320h-256v384h256v-384zM256 768h64v-64h-64v-384h64v-64h-64c-35.2 0-64 28.8-64 64v384c0 35.2 28.8 64 64 64zM64 704h64v-64h-64v-256h64v-64h-64c-35.2 0-64 28.8-64 64v256c0 35.2 28.8 64 64 64z" />
<glyph unicode="&#xe9ad;" glyph-name="watch" horiz-adv-x="768" d="M384 512h128v-64h-192v256h64v-192zM768 512c0-142.080-76.8-266.24-192-332.16v-115.84c0-35.2-28.8-64-64-64h-256c-35.2 0-64 28.8-64 64v115.84c-115.2 65.92-192 190.080-192 332.16s76.8 266.24 192 332.16v115.84c0 35.2 28.8 64 64 64h256c35.2 0 64-28.8 64-64v-115.84c115.2-65.92 192-190.080 192-332.16zM704 512c0 177.28-142.72 320-320 320s-320-142.72-320-320 142.72-320 320-320 320 142.72 320 320z" />
<glyph unicode="&#xe9ae;" glyph-name="x" horiz-adv-x="768" d="M478.72 512l240-240-94.72-94.72-240 240-240-240-94.72 94.72 240 240-240 240 94.72 94.72 240-240 240 240 94.72-94.72z" />
<glyph unicode="&#xe9af;" glyph-name="zap" horiz-adv-x="640" d="M640 576h-256l192 448-576-576h256l-192-448z" />
</font>
</defs>
</svg>
